<?xml version="1.0" encoding="utf-8"?>
<!-- Generator: Adobe Illustrator 26.0.0, SVG Export Plug-In . SVG Version: 6.00 Build 0)  -->
<svg version="1.1" id="Layer_1" xmlns="http://www.w3.org/2000/svg" xmlns:xlink="http://www.w3.org/1999/xlink" x="0px" y="0px"
	 viewBox="0 0 68 68" style="enable-background:new 0 0 68 68;" xml:space="preserve">
<style type="text/css">
	.st0{display:none;fill:#B7B7B7;}
	.st1{opacity:0.2;enable-background:new    ;}
	.st2{fill:#FFFFFF;}
	.st3{fill:#505368;}
</style>
<rect class="st0" width="68" height="68"/>
<g>
	<g>
		<circle class="st1" cx="37" cy="36" r="31"/>
		<circle class="st2" cx="34" cy="34" r="31"/>
	</g>
</g>
<g>
	<path class="st3" d="M49.8,34.7l-3.4-1.9c-1-0.6-2.2-0.2-2.8,0.7l-6.9,11.9c-0.1,0.1-0.1,0.3-0.2,0.5l0,0l-0.7,1.4l-0.2,5.3
		c0,0,0.5,1.7,2.3,1.5c1.6-0.7,4.8-3.1,4.8-3.1l0.7-1.2l0,0c0.1-0.1,0.2-0.2,0.3-0.4l6.9-11.9C51.1,36.5,50.8,35.2,49.8,34.7z"/>
	<path class="st3" d="M40.7,31c0,0,3-4.3,8.1-1.5V20c0-3.3-2.7-6-6-6H23.1c-3.3,0-6,2.7-6,6v27.5c0,3.3,2.7,6,6,6h8.6l0-0.1
		c0,0-0.4-6.5,0.7-8.4C34.3,42.1,40.7,31,40.7,31z M23.1,23.8c0-1.1,0.9-2,2-2h11.8c1.1,0,2,0.9,2,2v0c0,1.1-0.9,2-2,2H25
		C23.9,25.8,23.1,24.9,23.1,23.8L23.1,23.8z M31.3,39.6c0,1.1-0.9,2-2,2H25c-1.1,0-2-0.9-2-2v0c0-1.1,0.9-2,2-2h4.3
		C30.4,37.6,31.3,38.5,31.3,39.6L31.3,39.6z M25,33.7c-1.1,0-2-0.9-2-2v0c0-1.1,0.9-2,2-2h8.6c1.1,0,2,0.9,2,2v0c0,1.1-0.9,2-2,2H25
		z"/>
</g>
</svg>
