<?xml version="1.0" encoding="utf-8"?>
<!-- Generator: Adobe Illustrator 26.0.0, SVG Export Plug-In . SVG Version: 6.00 Build 0)  -->
<svg version="1.1" id="Layer_1" xmlns="http://www.w3.org/2000/svg" xmlns:xlink="http://www.w3.org/1999/xlink" x="0px" y="0px"
	 viewBox="0 0 68 68" style="enable-background:new 0 0 68 68;" xml:space="preserve">
<style type="text/css">
	.st0{display:none;}
	.st1{opacity:0.2;}
	.st2{fill:#FFFFFF;}
	.st3{fill:#505368;}
</style>
<rect class="st0" width="68" height="68"/>
<g>
	<g>
		<circle class="st1" cx="37" cy="36" r="31"/>
		<circle class="st2" cx="34" cy="34" r="31"/>
	</g>
	<g>
		<g id="c14_house_00000105425758347540934710000004162274101103993506_">
			<path class="st3" d="M17.6,53.6c0,0,0,1,1,1c1.3,0,11.6,0,11.6,0v-9.5c0,0-0.2-1.6,1.4-1.6h4.8c1.8,0,1.7,1.6,1.7,1.6v9.5
				c0,0,9.8,0,11.4,0c1.3,0,1.2-1.3,1.2-1.3V35.7l-16-14.2L17.6,35.7V53.6z"/>
			<path class="st3" d="M11.4,34.4c0,0,1.4,2.7,4.6,0l18.8-15.9l17.6,15.8c3.6,2.6,5,0,5,0L34.8,13.8L11.4,34.4z"/>
		</g>
	</g>
</g>
</svg>
