<svg width="30" height="30" viewBox="0 0 30 30" fill="none" xmlns="http://www.w3.org/2000/svg">
<path d="M17.75 23.75C17.75 24.3023 18.1977 24.75 18.75 24.75C19.3023 24.75 19.75 24.3023 19.75 23.75H17.75ZM2.75 23.75C2.75 24.3023 3.19772 24.75 3.75 24.75C4.30228 24.75 4.75 24.3023 4.75 23.75H2.75ZM22.75 20C22.75 20.5523 23.1977 21 23.75 21C24.3023 21 24.75 20.5523 24.75 20H22.75ZM24.75 12.5C24.75 11.9477 24.3023 11.5 23.75 11.5C23.1977 11.5 22.75 11.9477 22.75 12.5H24.75ZM20 15.25C19.4477 15.25 19 15.6977 19 16.25C19 16.8023 19.4477 17.25 20 17.25V15.25ZM27.5 17.25C28.0523 17.25 28.5 16.8023 28.5 16.25C28.5 15.6977 28.0523 15.25 27.5 15.25V17.25ZM19.75 23.75C19.75 21.9309 18.644 20.4064 17.108 19.3824C15.565 18.3537 13.491 17.75 11.25 17.75V19.75C13.1512 19.75 14.8271 20.2655 15.9986 21.0465C17.1771 21.8321 17.75 22.8077 17.75 23.75H19.75ZM11.25 17.75C9.00904 17.75 6.93501 18.3537 5.392 19.3824C3.85598 20.4064 2.75 21.9309 2.75 23.75H4.75C4.75 22.8077 5.32295 21.8321 6.5014 21.0465C7.67286 20.2655 9.34882 19.75 11.25 19.75V17.75ZM24.75 20V12.5H22.75V20H24.75ZM20 17.25H27.5V15.25H20V17.25ZM11.25 14C9.04086 14 7.25 12.2091 7.25 10H5.25C5.25 13.3137 7.93629 16 11.25 16V14ZM7.25 10C7.25 7.79086 9.04086 6 11.25 6V4C7.93629 4 5.25 6.68629 5.25 10H7.25ZM11.25 6C13.4591 6 15.25 7.79086 15.25 10H17.25C17.25 6.68629 14.5637 4 11.25 4V6ZM15.25 10C15.25 12.2091 13.4591 14 11.25 14V16C14.5637 16 17.25 13.3137 17.25 10H15.25Z" fill="#545454"/>
</svg>
