<?xml version="1.0" encoding="utf-8"?>
<!-- Generator: Adobe Illustrator 26.0.0, SVG Export Plug-In . SVG Version: 6.00 Build 0)  -->
<svg version="1.1" id="Layer_1" xmlns="http://www.w3.org/2000/svg" xmlns:xlink="http://www.w3.org/1999/xlink" x="0px" y="0px"
	 viewBox="0 0 106 95.6" style="enable-background:new 0 0 106 95.6;" xml:space="preserve">
<style type="text/css">
	.st0{fill-rule:evenodd;clip-rule:evenodd;fill:#5AC2FF;}
	.st1{fill-rule:evenodd;clip-rule:evenodd;fill:#2D2D2D;}
	.st2{fill-rule:evenodd;clip-rule:evenodd;}
	.st3{fill-rule:evenodd;clip-rule:evenodd;fill:#778399;}
	.st4{fill-rule:evenodd;clip-rule:evenodd;fill:#394253;}
	.st5{fill-rule:evenodd;clip-rule:evenodd;fill:#D0E1FB;}
	.st6{fill-rule:evenodd;clip-rule:evenodd;fill:#FFFFFF;}
	.st7{fill-rule:evenodd;clip-rule:evenodd;fill:#1A1A1A;}
	.st8{fill-rule:evenodd;clip-rule:evenodd;fill:#6E7178;}
	.st9{fill-rule:evenodd;clip-rule:evenodd;fill:#CED5DF;}
	.st10{fill-rule:evenodd;clip-rule:evenodd;fill:#4D4D4D;}
	.st11{fill-rule:evenodd;clip-rule:evenodd;fill:#FEFEFE;}
	.st12{fill-rule:evenodd;clip-rule:evenodd;fill:#FFBE1A;}
	.st13{fill-rule:evenodd;clip-rule:evenodd;fill:#DB740B;}
	.st14{fill-rule:evenodd;clip-rule:evenodd;fill:#2DA4E0;}
	.st15{fill:#FFFFFF;}
</style>
<g id="XMLID_3095_">
	<g id="XMLID_1767_">
		<path id="XMLID_903_" class="st0" d="M64.4,4c3.6,1.3,7,3.5,10,6c1.9-0.7,3.7-1.6,5.3-2.8l1.5-1.1l1.1,1.5
			c5.4,7.1,12.3,11.7,21,13.4l1.2,0.2l0.3,1.2c3.6,16.7-1.7,31.9-11.5,45.3v0.8C93.2,76.3,93,84,92.8,91.7L92.7,95l-2.8-1.7
			c-4.7-2.8-10.1-4.6-15.5-5.6c-2.9,2.4-5.8,4.8-8.8,7l-1.1,0.9l-1.1-0.9c-3.2-2.4-6.3-4.9-9.3-7.5c-5.4,0.7-10.8,2.2-15.6,4.8
			l-2.9,1.5l0.3-11.8c-1.6,0.3-3.2,0.1-4.7-0.7l-0.4-0.2l-0.3-0.3c-7.2-6.2-12.2-14.6-15.8-23.3c-1-0.5-1.9-1.2-2.7-1.9
			c-3.1-0.7-5.8-2.2-8.1-4.5l-0.2-0.2l-0.2-0.2c-3.1-4.2-4.1-9.1-3.2-14.2l0,0l0,0c1.5-7.6,6.9-11.7,14.3-12.9l0.3-0.1h0.4
			c2.9,0,5.8,0.6,8.3,2.1c0.1-0.9,0.3-1.8,0.5-2.7l0.3-1.2l1.2-0.2c5.7-1.1,10.7-3.6,15.1-7.4c0.3-1.9,1.1-3.6,2.2-5.1l4.7-6.6
			L48.5,5c2.7-1.7,5.8-2.7,9-3.3L66.6,0l-2.5,3.4C64.2,3.6,64.3,3.8,64.4,4"/>
		<path id="XMLID_902_" class="st1" d="M48,8.7c13.5,5.9,24.7,6,32.8,0.1C86.6,16.5,94,21.2,103,23c5.1,23.7-7.7,47.1-38.5,70.3
			C33.8,70.1,21,46.7,26.1,23C35.1,21.2,42.2,16.3,48,8.7"/>
		<path id="XMLID_899_" class="st2" d="M32.2,54.3c-0.5,0.4-1.1,0.8-1.7,1.2c0.5,0.4,1,0.8,1.5,1.1C32,55.9,32.1,55.1,32.2,54.3
			 M23.9,27.7c1.4,0,2.8,0.2,4.2,0.5l0.2,0.1l0.2,0.1c6.5,2.9,9.7,8,9.4,14.9c0.8-3.2,2.5-6.2,5-8.6c2-1.9,4.4-3.3,7-4.2l0.7-0.6
			c2.9-2.4,6.7-4.7,10.1-6.5c3.2-1.7,6.7-3.1,10.2-4c3.9-1,7.9-1.4,11.9-0.8h0.1H83c7,1.4,14.6,4.6,16.1,12.3V31v0.1
			c0.2,1.7,0.9,3,2.3,3.9l1.4,1l-0.4,1.6c-2.2,8.9-5.4,17.4-10,25.3l0,0l0,0c-6.3,10.4-13.7,16.3-24.7,21.7h-2l-1.5,0
			c-4.6-4.8-9.5-7.8-13.1-13.5L50.4,70l2.2-5.4c-0.1,0.2-0.2,0.4-0.3,0.7v0.1l-0.1,0.1c-1.8,2.9-4.3,5.2-7.2,7l-1.4,0.8
			c-1.6,2.3-3.5,4.2-6,5.7h-0.1h-0.1c-1.7,0.9-3.7,1.2-5.5,0.2l-0.2-0.1l-0.2-0.2c-7.1-6.2-12-14.6-15.6-23.2
			c-1.2-0.6-2.3-1.3-3.3-2.3c-2.9-0.5-5.5-1.9-7.6-4.1l-0.1-0.1l0.1,0c-2.8-3.7-3.6-8.1-2.8-12.7l0,0l0,0C3.6,29.7,8.4,26.2,15,25.1
			h0.2h0.2C18.5,25.1,21.5,25.8,23.9,27.7z"/>
		<path id="XMLID_898_" class="st2" d="M52.7,56.5c2.9,3,4.6,6.7,5,10.9c-0.7-1.4-1.3-2.5-2.1-3.5l-2.4,5.9
			c3.2,5,7.3,10.1,12.3,15.3c10.1-5,18.4-12.7,24.7-23.2c4.3-7.4,7.5-15.6,9.7-24.7c-1.9-1.4-3-3.2-3.3-5.6
			c-1.1-5.2-5.8-8.7-14.2-10.4C67.6,19.2,52.2,32,52.2,32c0.3,0.3,0.4,0.5,0.4,0.5c-7.6,1.7-13.3,7.9-12.8,17.1l-1.2-2
			c-3.6,3-4.8,7.7-3.9,14.2c-2.9-1.9-5.8-4.1-9-6.7c5.5-2,8.7-5.7,9.5-11c0.6-6.3-2-10.8-7.8-13.4c-1.4-0.4-2.9-0.5-4.5-0.5
			c-1.8-1.8-4.3-2.6-7.6-2.6c-6.1,1-9.7,4.1-10.7,9.4c-0.7,4.1,0,7.7,2.3,10.8c1.9,2,4.3,3.1,7.2,3.5c0.8,1.1,2.1,2.1,3.9,2.8
			c4,10.1,9.1,17.8,15.3,23.2c0.8,0.5,1.9,0.4,3.1-0.3c3.5-2,6.1-5.5,8-10.5l-0.7,4c2.8-1.7,4.9-3.8,6.3-6.2
			C51.6,61.1,52.5,58.5,52.7,56.5"/>
		<path id="XMLID_897_" class="st3" d="M60.8,80c1.5,1.7,3,3.4,4.7,5.1c5.8-2.9,11.1-6.7,15.7-11.4c1-2.4,1.7-4.7,2.3-7.1
			c-6.1,3.4-14,3.8-23.7,1.1c0.4,1.7,0.2,3.5-0.8,5.3c-0.3-1.8-1.3-4.2-3.1-7.1l-1.3,4.4L60.8,80z"/>
		<path id="XMLID_896_" class="st4" d="M60.8,80c1.5,1.7,3,3.4,4.7,5.1c0.8-0.4,1.6-0.8,2.4-1.3l-6.1-5.1c-0.3-2.6-0.1-5.6,0.4-9.2
			c0.9,0,2.5,0,4.8-0.2l0,0c-2.3-0.3-4.8-0.8-7.4-1.5c0.4,1.7,0.2,3.5-0.8,5.3c-0.3-1.8-1.3-4.2-3.1-7.1l-1.3,4.4L60.8,80z"/>
		<path id="XMLID_895_" class="st3" d="M90.3,61.9c4.3-7.4,7.5-15.6,9.7-24.7c-2.5,3-5,5.2-7.5,6.6c2.8-3,4.3-6.6,4.5-10.6l0,0
			c-0.2-0.5-0.3-1.1-0.4-1.7c-1.1-5.2-5.8-8.7-14.2-10.4c-0.5-0.1-1-0.1-1.5-0.2l0,0c-2.2-0.1-4.4,0-6.5,0.4c2.3,1,4.9,1.6,7.9,1.8
			c0,0-0.9,0.8-2.6,2.4c-4.2,4.2-3.1,9.1,3.4,14.8c2.9-0.2,5.3,0.8,7,3.1c-1.8-1.3-3.4-1.6-4.7-0.9C83.4,47.8,85.1,54.3,90.3,61.9"
			/>
		<path id="XMLID_894_" class="st3" d="M82.4,50.2c-4.4,2.9-8.7,3.9-12.7,2.7c-4-0.7-4.9-7.3-3-18C72.1,35.1,77,38,81.3,44
			c-0.5-1.9-1.6-3.6-3.3-5C82.9,41.2,84.3,45.6,82.4,50.2"/>
		<path id="XMLID_893_" class="st3" d="M54.9,55.7c2.7,1.2,6,0.3,10-2.6c-1-5.6-0.8-11.7,0.5-18.3c-9.9,2.9-13.9,8.1-11.9,15.5
			c-2.8-3.7-2.6-7.7,0.6-12.1c-5,3.9-6.7,7.8-4.9,11.8C50.9,52.3,52.8,54.2,54.9,55.7"/>
		<path id="XMLID_892_" class="st4" d="M72.1,33.1c-3.2-0.2-4.8-0.4-4.8-0.4c2.8,1,5.9,2.1,9.2,3.1c-1.5-3.6-1.4-6.8,0.3-9.6
			C74.1,28,72.6,30.3,72.1,33.1"/>
		<path id="XMLID_891_" class="st3" d="M72.1,33.1c-3.2-0.2-4.8-0.4-4.8-0.4s2.3,0.4,6.8,1.1c-0.2-3.4,0.7-5.9,2.7-7.6
			C74.1,28,72.6,30.3,72.1,33.1"/>
		<path id="XMLID_890_" class="st4" d="M57.1,57.2c2.5,1.1,6.1,1.3,10.9,0.5c-0.3-3.3-1.2-4.6-2.7-3.9
			C62.5,56.1,59.7,57.2,57.1,57.2"/>
		<path id="XMLID_889_" class="st4" d="M61.1,61.3c3.3,0.6,5.7,1.2,7.1,1.9c0.3-1.2,0.3-2.7-0.2-4.5c-3.1,0.7-6.1,0.8-9,0.2
			c1.2,1.6,3.5,2.5,7,2.7C62.8,61.4,61.1,61.3,61.1,61.3"/>
		<path id="XMLID_888_" class="st3" d="M68.3,64c-0.2,1.7-0.4,2.9-0.7,3.8c-1.2,0-2.4-0.1-3.6-0.4c-3.6-0.8-5.4-2.6-5.6-5.5
			C60.2,62.9,63.6,63.6,68.3,64"/>
		<path id="XMLID_887_" class="st4" d="M69.5,58.4c4.1-0.6,7.8-1.5,10.9-2.6c-2.5,0.3-6.2,0.8-11,1.4c0,0-0.2-1-0.7-2.9
			c6.5,1.2,11.3,0.2,14.3-2.9c1.8,2.9,2.5,5.5,2.3,7.7c-3.9,2.6-9.1,4-15.6,4C69.5,60,69.5,58.4,69.5,58.4"/>
		<path id="XMLID_886_" class="st4" d="M69.6,64.2C69.5,66.1,69,68,69,68c5.3,0.4,10.6-0.2,14.7-3c0.9-1.3,1.4-2.9,1.5-4.9
			C80.7,63,75.5,64.3,69.6,64.2"/>
		<path id="XMLID_885_" class="st4" d="M77.4,50.6c-5.3-0.1-9.2-2.1-11.7-6.1c0,5,1.4,8,4,8.5c4,1.1,8.2,0.2,12.7-2.7
			c1.9-4.6,0.5-9-4.4-11.1c1.7,1.4,2.8,3.1,3.3,5c1.1,5-1.5,6.5-8,4.5C74.5,49.4,75.8,50.1,77.4,50.6"/>
		<path id="XMLID_884_" class="st4" d="M64.9,53.1c-7.7,0.3-12.3-1.2-13.6-4.6c0.1,1.4,0.5,2.5,1.3,3.4c-3.4-1.9-4.4-4.9-3-9
			c-1.4,2.3-1.5,4.7-0.4,7.1c1.7,2.3,3.6,4.2,5.7,5.8C57.6,57,60.9,56.1,64.9,53.1"/>
		<path id="XMLID_883_" class="st3" d="M67.7,55.5c-0.7-0.7-1.6-0.6-2.7,0.1c-1.4,1.1-2.6,1.8-3.7,2.1c0.7,0.2,1.6,0.3,2.6,0.5
			c1.3-0.1,2.7-0.2,4.2-0.5C67.9,56.8,67.8,56.1,67.7,55.5"/>
		<path id="XMLID_882_" class="st3" d="M64,59.2c0.3,0.9,1.2,1.8,2.6,2.5l-1,0.5c1.1,0.3,2,0.6,2.7,1c0.3-1.2,0.3-2.7-0.2-4.5
			C66.7,59,65.3,59.2,64,59.2"/>
		<path id="XMLID_881_" class="st4" d="M65.7,67.7c-2.9-0.7-4.8-2.3-5.8-4.6c1.5,0.3,3.2,0.5,5.2,0.6c-3.1-0.4-5.3-1-6.8-1.8
			c0.2,2.9,2.1,4.8,5.6,5.5C64.5,67.5,65.1,67.6,65.7,67.7"/>
		<path id="XMLID_880_" class="st3" d="M80.4,55.8c-2.7,1-5.7,1.8-9.1,2.3C72.6,60,74.5,61,77,61h-3.1c2.7,0.9,6.5,0.3,11.4-2
			c0.3-2.2-0.5-4.8-2.3-7.7c-0.9,2.8-4.4,4.7-10.4,5.5C75.9,56.3,78.5,56,80.4,55.8"/>
		<path id="XMLID_879_" class="st3" d="M73,64.1c1.3,1.3,3,2.1,5.1,2.3c-1.2,0.3-2.3,0.3-3.5,0.1c2.6,1,5.6,0.5,9-1.5
			c0.9-1.3,1.4-2.9,1.5-4.9C81.6,62.4,77.5,63.7,73,64.1"/>
		<path id="XMLID_878_" class="st5" d="M57.2,42c-2.6,6.2-0.1,9.6,7.5,10.2c-0.8-5.3-0.6-11.1,0.6-17.4c-9.9,2.9-13.9,8.1-11.9,15.5
			C53.6,46.7,54.9,43.9,57.2,42"/>
		<path id="XMLID_877_" class="st5" d="M65.8,42.6c1.4,1.7,4.1,3.5,8.3,5.4c-1.9-1.5-3.2-2.8-4.1-3.7c7.4,4.2,10.6,3.5,9.7-2.3
			c-3.9-4.6-8.2-6.8-12.9-7C66.2,37.8,65.9,40.3,65.8,42.6"/>
		<path id="XMLID_876_" class="st5" d="M68,57.7c-0.2-1.1-0.2-1.7-0.2-1.7c-0.9-0.2-2,0.2-3.3,1.4c0.6,0.4,1.4,0.5,2.3,0.5
			C67.6,57.8,68,57.7,68,57.7"/>
		<path id="XMLID_875_" class="st5" d="M66.1,64.7L62,64.8l5.5,3c0.3-0.8,0.5-2.1,0.7-3.8c-0.6-0.1-1.2-0.1-1.7-0.2
			C66.4,64.1,66.3,64.4,66.1,64.7"/>
		<path id="XMLID_874_" class="st5" d="M66.9,62.6c0.5,0.2,1,0.4,1.4,0.6c0.3-1.2,0.3-2.7-0.2-4.5c-0.9,0.2-1.7,0.3-2.6,0.4
			C66.3,59.6,67,60,67,60C67,61,67,61.9,66.9,62.6"/>
		<path id="XMLID_873_" class="st5" d="M85.3,58.4c0-1.9-0.5-3.7-1.4-5.4c-0.9,0.9-1.8,1.6-2.8,2.1c1.2,0.1,1.9,0.1,1.9,0.1
			c-4,1.2-7.4,2.1-10.1,2.7c2.5,1.1,5.2,1.3,8.4,0.6c-1.4,0.7-3,1-5,1C78.6,60.2,81.6,59.8,85.3,58.4"/>
		<path id="XMLID_872_" class="st5" d="M85.2,60.1c-3.1,2-6.4,3.2-10.1,3.8c2,1.1,4.3,1.4,7,1c-2.1,0.7-3.1,1-3.1,1
			c1.9-0.2,3.5-0.5,4.9-1C84.6,63.7,85.1,62.1,85.2,60.1"/>
		<path id="XMLID_871_" class="st5" d="M70.1,69.5l-1.8,2l0.7,7l2.9,2.9c3.3-2.2,6.4-4.8,9.3-7.7c1-2.4,1.7-4.7,2.3-7.1
			C79.7,68.8,75.2,69.7,70.1,69.5"/>
		<path id="XMLID_870_" class="st4" d="M85.4,42.6c-1.9,5.3-0.3,11.7,4.9,19.4c0.6-1,1.2-2.1,1.7-3.1c-3.4-3.7-5.5-8.9-5.1-13.2
			c0.3,1.9,0.8,4.6,3.3,9c-0.6-4.6-0.6-8.3-0.1-11.1C88.3,42.2,86.7,41.8,85.4,42.6"/>
		<path id="XMLID_869_" class="st4" d="M79.7,25.6c-4.2,4.2-3.1,9.1,3.4,14.8c1.3-0.1,2.5,0,3.5,0.4c-3.7-2.4-6.2-5.1-7.6-8.1
			c0.9,1.1,2.1,2.1,3.6,3c-3.2-3.8-3.4-7.9-0.4-12.5L79.7,25.6z"/>
		<path id="XMLID_868_" class="st5" d="M85.3,21.9C81,27,81.3,32,86.2,37.1c-1.4-2.9-1.7-5.2-1-7c-0.1,4.3,2.3,8.9,7.3,13.8
			c2.8-3,4.3-6.6,4.5-10.6c-0.2-0.5-0.3-1.1-0.4-1.7C95.7,27,91.9,23.8,85.3,21.9"/>
		<path id="XMLID_867_" class="st4" d="M92.5,43.9l4-0.1c0.3,1.8-0.2,4.4-1.3,7.9c1.9-4.6,3.5-9.4,4.7-14.5
			C97.5,40.3,95,42.5,92.5,43.9"/>
		<path id="XMLID_864_" class="st5" d="M91,48.6c0-0.9,0.2-1.9,0.3-2.8c2.4,0,4.1-0.1,4.1-0.1c0.1,0.8,0,1.7,0,2.5L91,48.6z
			 M92.6,57.7c-1-2.5-1.5-5-1.6-7.5l4.3-0.6C94.8,52.4,93.8,55.2,92.6,57.7z"/>
		<path id="XMLID_863_" class="st6" d="M85.3,21.9c6.6,2.3,10.2,6.1,10.8,11.4l-1.3-2.4c1.6,4.2,0.8,8.5-2.3,13
			c2.8-3,4.3-6.6,4.5-10.6c-0.2-0.5-0.3-1.1-0.4-1.7C95.7,27,91.9,23.8,85.3,21.9"/>
		<path id="XMLID_862_" class="st6" d="M64.2,36c-1,6.5-0.8,11.8,0.6,16.2c-0.8-5.3-0.6-11.1,0.6-17.4c-6.5,1.9-10.4,4.8-11.8,8.6
			C55,40.1,58.5,37.6,64.2,36"/>
		<path id="XMLID_861_" class="st6" d="M67.2,35.7c3,0.2,6.2,1.4,9.7,3.5c-3.1-2.7-6.5-4.1-10.2-4.2c-0.5,2.8-0.8,5.4-0.9,7.6
			C66.5,39.3,67,37,67.2,35.7"/>
		<path id="XMLID_858_" class="st3" d="M60.1,49.4c-1.1-0.3-2.1-0.8-2.8-1.6c0.6,1.1,1.5,1.9,2.6,2.4L60.1,49.4z M61.9,49.6
			c-0.5,0-0.9,0-1.3-0.1l-0.2,1c0.4,0.2,0.8,0.3,1.3,0.4C61.8,50,61.9,49.6,61.9,49.6z"/>
		<path id="XMLID_855_" class="st6" d="M93.1,35.9c0.3,1.5,0.4,3.3,0.2,5.5c0.7-2.2,1.1-4.1,1.2-5.8L93.1,35.9z M91.9,33
			c0.4,0.6,0.8,1.3,1,2.1l1.6-0.4c0-0.8-0.1-1.6-0.2-2.3C92.7,32.8,91.9,33,91.9,33z"/>
		<path id="XMLID_854_" class="st6" d="M84.6,61.1c0.1,1.3-0.2,2.6-0.8,3.8c0.4-0.6,0.7-1.2,0.9-1.9c0.3-0.9,0.4-1.8,0.5-2.9
			c-2.5,1.6-5.3,2.8-8.3,3.4C79.4,63.2,82,62.4,84.6,61.1"/>
		<path id="XMLID_851_" class="st6" d="M81.9,57h-3.7l3.7-1C82,56.4,82,56.7,81.9,57 M83.8,57h-1c0-0.4,0-0.7-0.1-1.1l1-0.3
			C83.7,56.1,83.8,56.5,83.8,57z"/>
		<path id="XMLID_848_" class="st6" d="M60.7,39.8c-0.2-0.4-0.3-0.8-0.3-1.1c0.8-0.4,1.6-0.8,2.4-1c-0.1,0.4-0.2,0.9-0.2,1.3
			C62,39.1,61.4,39.4,60.7,39.8 M62.6,43.1c-0.7-1-1.2-1.9-1.6-2.8c0.4-0.3,0.9-0.5,1.5-0.6C62.4,40.8,62.5,41.9,62.6,43.1z"/>
		<path id="XMLID_847_" class="st3" d="M77.1,42.7c1.3,0.5,1.9,0.7,1.9,0.7c0.3,2.9-1.6,3.5-5.4,1.7C77,45.7,78.1,44.9,77.1,42.7"/>
		<path id="XMLID_846_" class="st4" d="M42.4,39.5c-1.8,2.7-2.9,6.2-2.6,10.1c-0.8-1.3-1.2-2-1.2-2c-3.6,3-4.8,7.7-3.9,14.2
			c-2.9-1.9-5.8-4.1-9-6.7c5.5-2,8.7-5.7,9.5-11c0-0.1,0-0.2,0-0.3c-10.6,6.5-15.3,10-14.2,10.5c-0.2,2.7,1.8,7.5,6.2,14.4
			c0,0,0.2-1.1,0.6-3.4c0.5,2.9,2,5.9,4.5,9c1.4,1.5,3.5,1.8,6.5,0.9c2.3-2.1,4.1-5,5.5-8.7c-0.5,2.7-0.7,4-0.7,4
			c2.3-1.8,3.8-3.7,4.5-5.7c2.3-8.3,1-13.9-4.1-16.8c0,0,0.7,0.1,2.2,0.3c-0.2-6,1.4-10.6,4.8-14C47.4,35.1,44.5,36.8,42.4,39.5"/>
		<path id="XMLID_845_" class="st3" d="M40.3,44.3c-0.4,1.6-0.6,3.4-0.5,5.3c-0.8-1.3-1.2-2-1.2-2c-3.6,3-4.8,7.7-3.9,14.2
			c-2.3-1.5-4.6-3.2-7.1-5.2c0,0-0.1,2.1-0.3,6.4c0,0,0.6-0.2,1.8-0.7c1.3,5.8,4,9.1,8.1,10c3.7-3,5.7-8.4,6.1-16.1
			c1.5,2.1,1.9,5.5,1.1,10.1c3.8-9,3.1-15.3-2.3-18.8c0,0,0.7-0.3,2-0.9c0.1-3.1,0.6-5.9,1.6-8.1C43.9,39.3,42.1,41.2,40.3,44.3"/>
		<path id="XMLID_844_" class="st5" d="M40.1,44.9c-0.3,1.4-0.4,3-0.3,4.6c-0.8-1.3-1.2-2-1.2-2c-3.6,3-4.8,7.7-3.9,14.2
			c-1.8-1.2-3.5-2.5-5.4-3.9c2.9,8,5.7,11.3,8.2,9.9c-0.3,0.7-0.6,1.4-1.1,2.1c3.8-3,5.2-8.1,4.2-15.2c-0.5,2.1-0.7,3.1-0.7,3.1
			c-1-2.3-1-4.7,0.1-7.4c1.2,1.1,1.9,1.7,1.9,1.7C40.5,49.9,39.9,47.5,40.1,44.9"/>
		<path id="XMLID_843_" class="st7" d="M18,54c2.4,0.8,4.9,1.2,7.7,1.1c5.5-2,8.7-5.7,9.5-11c0.6-6.3-2-10.8-7.8-13.4
			c-1.4-0.4-2.9-0.5-4.5-0.5c-1.8-1.8-4.3-2.6-7.6-2.6c-6.1,1-9.7,4.1-10.7,9.4c-0.7,4.1,0,7.7,2.3,10.8c1.9,2,4.3,3.1,7.2,3.5
			C15,52.4,16.3,53.3,18,54"/>
		<path id="XMLID_842_" class="st0" d="M23,30.2c-1.8-1.8-4.3-2.6-7.6-2.6c-3.4,0.5-6,1.8-7.8,3.6C12.5,27.6,17.6,27.3,23,30.2"/>
		<path id="XMLID_841_" class="st2" d="M30.2,37.9c-3.9-4.6-8.3-4.9-13.1-1c3.7-3.7,7.7-4.3,12.2-1.9c3.4,2.7,4.6,6,3.6,9.9
			c-2.5,8.6-11.7,8.8-16.4,4.2c4.7,3.1,9.3,2.9,13.7-0.5c-3.2,1.9-6.6,2.3-10.3,1.2c2.7,0.4,5.4-0.5,7.9-2.5c-4.5,2-7.5,1.1-9-2.7
			c-0.3-3.9,1.3-6.2,4.8-6.8c2.7,0.1,4.4,1.3,5.2,3.9c-0.3-3-2.3-4.6-6-4.7C25.9,36.4,28.3,36.8,30.2,37.9"/>
		<path id="XMLID_838_" class="st8" d="M23.9,42c-0.9,1-1.4,1.4-1.4,1.4s1.4,0.6,4.1,1.9c0,0-1.1-0.7-3.2-2
			C23.3,43.3,23.5,42.9,23.9,42 M20.5,42.7c0.7-0.5,1.3-0.9,1.9-1.1c0,0,0.2-0.9,0.7-2.6c1.4,1,2.4,1.3,2.9,0.9
			c0.6-0.3,1.2-0.2,1.7,0.4c-0.1,0.8-0.3,1.5-0.8,2.2c1.2,0.4,1.8,0.5,1.8,0.5c0.7,0.6,0.9,1.4,0.5,2.4c-0.5,0.9-1.4,1.1-2.5,0.7
			c-0.2,0.9-0.6,1.3-1.3,1.2c-0.9-0.7-1.4-1.1-1.4-1.1c-0.8,0.4-1.5,0.7-2.2,0.7c-0.2-0.9-0.1-1.8,0.4-2.5
			C21.4,44.2,20.8,43.6,20.5,42.7z"/>
		<path id="XMLID_837_" class="st6" d="M26.9,42.6c1.2,0.4,1.8,0.5,1.8,0.5c0.7,0.6,0.9,1.4,0.5,2.4c-0.5,0.9-1.4,1.1-2.5,0.7
			c0,0-1.5-0.6-4.5-1.8c-0.8-0.3-1.4-0.8-1.7-1.8c0.7-0.5,1.3-0.9,1.9-1.1c-0.6,0.4-1,0.9-1,1.5c0,0,1.7,0.8,5.2,2.3l-3.2-2l0.5-1.2
			l0.3-0.3C24.2,41.7,25.1,42,26.9,42.6"/>
		<path id="XMLID_836_" class="st9" d="M23.8,42.1c-0.6,0.9-0.9,1.3-0.9,1.3s1.1,0.6,3.4,1.9c0,0,0.4,0.1,1.1,0.4
			c-0.2-0.7,0.1-1.3,0.9-2C25.3,42.6,23.8,42.1,23.8,42.1"/>
		<path id="XMLID_835_" class="st8" d="M23,43.3c0.3-0.5,0.5-0.7,0.5-0.7c2.2,1.1,3.3,1.7,3.3,1.7c-0.3,0.4-0.3,0.7-0.2,1.1
			C24.2,44,23,43.3,23,43.3"/>
		<path id="XMLID_834_" class="st2" d="M28.8,45c0.3-0.6,0.1-1-0.4-1.3c-0.7-0.1-1.2,0.3-1.3,1.2c-0.1,0.7,0.3,1,1.1,1.1
			c0.3-0.1,0.5-0.3,0.5-0.7c-0.5,0.3-0.8,0.3-0.9-0.1c-0.1-0.5,0.1-0.8,0.4-0.9C28.6,44.3,28.8,44.6,28.8,45"/>
		<path id="XMLID_833_" class="st9" d="M27.8,45.1c0.2,0.4,0.5,0.4,0.9,0.1c0,0.4-0.2,0.6-0.5,0.7c0.3,0,0.6-0.1,0.9-0.4
			c0.4-1.1,0.3-1.9-0.5-2.4c-0.1,0.1-0.2,0.3-0.3,0.6c0.5,0.3,0.6,0.7,0.4,1.3c0-0.4-0.2-0.7-0.5-0.8C27.9,44.3,27.8,44.6,27.8,45.1
			"/>
		<path id="XMLID_832_" class="st6" d="M28,45.1c0-0.4,0-0.6,0.3-0.7c0.3,0.1,0.5,0.3,0.6,0.6c0-0.4-0.2-0.7-0.5-0.8
			C28,44.3,27.9,44.6,28,45.1c0.2,0.4,0.5,0.4,0.9,0.1C28.3,45.4,28,45.3,28,45.1"/>
		<path id="XMLID_831_" class="st9" d="M21.8,46.9c0.6,0,1.4-0.2,2.2-0.7l1.4,1.1c0.7,0.2,1.1-0.2,1.3-1.2c-0.4,0.7-0.8,0.9-1.3,0.8
			l-1.2-1l0.3-0.6l-2.2-0.9C21.8,45.2,21.7,46,21.8,46.9"/>
		<path id="XMLID_830_" class="st2" d="M26.9,42.6c0.4-0.7,0.7-1.4,0.8-2.2c-0.8,0.7-1.5,1-2.1,1.1c0.6-0.5,0.9-0.7,0.9-0.7
			c-1.1,0.2-1.9,0.5-2.2,0.9C26,42.3,26.9,42.6,26.9,42.6"/>
		<path id="XMLID_829_" class="st2" d="M26.7,46.2l-2.2-0.9L24.2,46l1.2,1C25.9,47.2,26.3,46.9,26.7,46.2"/>
		<path id="XMLID_828_" class="st2" d="M30.9,52.2c-5.9,3.3-11.4,2.6-16.4-1.9C11,46,12.1,38.3,17,33.5c3.2-2.7,7.2-3.2,12-1.6
			c-3.9-1.9-7.8-1.7-11.6,0.5c-4.3,3.5-6.2,7.8-5.7,13.1c0.4,2.1,1.3,4,2.6,5.7c0.8,1.1,2.1,2.1,3.9,2.8c2.4,0.8,4.9,1.2,7.7,1.1
			C27.8,54.3,29.5,53.3,30.9,52.2"/>
		<path id="XMLID_827_" class="st2" d="M13.5,51.1c-2.5-2.6-3.3-6.3-2.2-11.1c2.3-6.3,6.2-9.5,11.7-9.7c-6.7-3.1-12-1.5-16,5
			c2.8-3.6,6.1-5.5,10.1-5.5c-4.7,1-7.5,3.4-8.2,7.4c1.2-3.6,3.6-5.6,7.3-5.9C11.4,34.2,9,38.8,9,45c-1.4-2.4-1.6-5.2-0.9-8.7
			c-1.8,4.2-1.4,8.2,1.1,12.1c-5-5.9-5.6-11.6-1.7-17.2C6,32.7,5.1,34.6,4.6,37c-0.7,4.1,0,7.7,2.3,10.8
			C8.8,49.6,10.9,50.7,13.5,51.1"/>
		<path id="XMLID_826_" class="st0" d="M17.3,32.5c3.9-2.3,7.8-2.4,11.6-0.5c-4.8-1.6-8.8-1.1-12,1.6c-0.3,0.3-0.6,0.7-0.9,1
			c5.4-4.7,11.4-4,18,2c-1.3-2.5-3.5-4.4-6.6-5.9c-1.4-0.4-2.9-0.5-4.5-0.5c-5.5,0.2-9.4,3.5-11.7,9.7c-1,4.9-0.3,8.6,2.2,11.1
			c0.2,0,0.5,0.1,0.7,0.1c-1.3-1.7-2.1-3.5-2.6-5.7C11.1,40.3,13,35.9,17.3,32.5"/>
		<path id="XMLID_825_" class="st10" d="M16.6,43.2c-0.3,1.7-0.4,3.6-0.2,5.9c-2.2-4.7-2-8.8,0.6-12.2c-0.3,1.2-0.3,2.5-0.3,3.7
			c0.9-4,3.8-5.8,8.7-5.4c-6-0.2-8.5,3.7-7.6,11.5C17,44.4,16.6,43.2,16.6,43.2"/>
		<path id="XMLID_824_" class="st6" d="M34.7,61.7c-0.4-5.6,0.9-9.9,3.8-12.9l1.3,0.7l-1.2-2C35,50.5,33.8,55.3,34.7,61.7"/>
		<path id="XMLID_823_" class="st3" d="M36.7,64.7c-1.3,0.6-2.5,0.2-3.7-1.2c1.1,2.5,2.6,3.7,4.5,3.6C37.5,66.3,37.2,65.5,36.7,64.7
			"/>
		<path id="XMLID_822_" class="st2" d="M72.4,82.5c-7.1-0.3-10.6-0.4-10.6-0.4c2.4,2.8,4.1,2.5,4.1,2.5C70.5,82,72.4,82.5,72.4,82.5
			"/>
		<path id="XMLID_821_" class="st6" d="M78.6,69.4c0,1.9-0.5,4.6-1.4,8c1.4-1.1,2.7-2.4,3.9-3.7c1-2.4,1.7-4.7,2.3-7.1
			c-3,1.7-6.4,2.6-10.2,2.8C75.5,69.8,77.3,69.8,78.6,69.4"/>
		<path id="XMLID_820_" class="st2" d="M66,32.5c5.3-0.7,10.7-0.2,16,1.1l2.9,0.7l-0.6-2.9c-0.6-3-1.6-6.2-3.1-9l2.6-0.1l-2.6-3
			c-5-5.7-12.4-13-20.4-14.5l1.6-2.2l-4.5,0.8C54,4.1,50.4,5.6,47.4,8L47,6.2l-2.3,3.3c-1.4,2-2.2,4.3-1.8,6.7
			c0.1,4,2.6,6.9,5.9,8.8c0.2,0.8,0.5,1.7,0.7,2.5l1,3.3c-0.1,0.3-0.1,0.7-0.2,1l-0.5,1.7l1.7,0.5c4,1.2,8,2.3,12.1,3.5l2.3,0.7
			l0.1-2.4C65.9,34.8,65.9,33.6,66,32.5"/>
		<path id="XMLID_819_" class="st5" d="M64,35.9c0,0,0.1-1.7,0.2-5c5.7-1,11.7-0.7,18.2,0.9c-1-4.7-2.5-8.5-4.6-11.1
			c0,0,0.6,0,1.9,0C71.4,11,63.9,6.3,57.3,6.6c0,0,0.3-0.4,0.9-1.2c-4.9,0.9-8.8,3-11.9,6.3c0,0-0.1-0.3-0.2-0.9
			c-1.3,1.9-1.8,3.7-1.5,5.5c0,1.7,0.6,3.3,1.7,4.7l0,0c2.7-3,6.9-3.9,12.7-2.7c2.1,0.9,4.1,1.6,5.9,2.2c-3.8,0.2-5.7,0.3-5.7,0.3
			c2.1,1.5,3.2,3.8,3.3,7c-2.1-2.1-3.9-2.9-3.9-2.9c1.7,1.9,3.2,4.4,3.5,7.5L58,30.1C59.2,32.5,61,34.6,64,35.9"/>
		<path id="XMLID_818_" class="st11" d="M82.4,31.8c-1-4.7-2.5-8.5-4.6-11.1c0,0,0.6,0,1.9,0C71.4,11,63.9,6.3,57.3,6.6
			c0.9,0.5,1.3,0.7,1.3,0.7c-1.8,0.1-3.4,0.6-4.9,1.5c0.6-0.7,1.1-1.2,1.5-1.5c-2.4,0.9-4.5,2-6.3,3.3c0.9-0.9,1.6-1.6,2.2-2
			c-1.4,0.6-3,1.7-4.8,3.1c3-3.3,7-5.4,11.9-6.3c-0.6,0.8-0.9,1.2-0.9,1.2c4.3,0.2,7.8,1.7,10.6,4.5c-1-0.3-2.1-0.5-3.6-0.5
			c1.3,0.3,3.2,1.4,5.9,3.4c0,0-0.8-0.1-2.3-0.4c3.4,2.1,6,4.3,8.1,6.8c0,0-1.4-0.1-4.2-0.2c2.8,1.7,5.4,4.4,7.7,8.3
			c0,0-1.5,0-4.4-0.1C76.9,29,79.4,30.2,82.4,31.8"/>
		<path id="XMLID_817_" class="st3" d="M64,35.9c0,0,0.1-1.7,0.2-5c2.2-0.4,4.4-0.6,6.7-0.6c-3.2-1.6-4.8-2.4-4.8-2.4
			c2.2-0.1,3.3-0.2,3.3-0.2c-2.8-2.9-4.2-4.4-4.2-4.4c4.1,0.4,7.4,1.5,10,3c-4.9-5.1-8.9-8.3-11.9-9.4c4.2,0.9,6.2,1.4,6.2,1.4
			c-2.8-2.6-5.2-4.5-7.4-5.6c2.6-0.1,4-0.1,4-0.1c-2.5-1.5-4.5-1.9-6.3-1.4c1.5-1.1,3-1.7,4.6-1.8C61.8,8.1,59.1,8,56.1,9
			c-1.5,0.5-2.7,1.7-3.9,3.7c0.6-1.7,1.4-2.9,2.5-3.7c-1.4,0.8-2.5,1.7-3.2,2.7c0.3-0.8,0.7-1.5,1.2-2.1c-1.6,1.2-2.5,2.3-2.7,3.2
			c-0.4-0.6-0.5-1.2-0.4-2c-0.6,0.9-0.8,1.3-0.8,1.3c-0.1-0.4,0-0.7,0.1-1c-1.9,0.9-3.4,2.3-4.4,4.2c0,0.3,0,0.5,0.1,0.8
			c0,1.7,0.6,3.3,1.7,4.7l0,0c2.7-3,6.9-3.9,12.7-2.7c2.1,0.9,4.1,1.6,5.9,2.2c-3.8,0.2-5.7,0.3-5.7,0.3c2.1,1.5,3.2,3.8,3.3,7
			c-2.1-2.1-3.9-2.9-3.9-2.9c1.7,1.9,3.2,4.4,3.5,7.5L58,30.1C59.2,32.5,61,34.6,64,35.9"/>
		<path id="XMLID_816_" class="st2" d="M44.5,15.4c0,0.3,0,0.5,0.1,0.8c0,3.2,1.9,5.8,5.6,7.8c0.6,2.1,1,3.2,1,3.2
			c-0.1-2.2-0.6-3.9-1.5-5.1c2.1-2.2,5.2-3.5,9.3-4c-0.9-0.8-2-1.2-3.3-1.2c1.1-0.8,2.8-1.4,5.1-2c-1.1-1-3.5-1.5-7.2-1.4
			c0,0,0.4-0.2,1.3-0.6c0,0-0.9-0.1-2.6-0.2c-0.2,0.3-0.8,0.3-1.7,0.1c0,0,0.6,0.3,1.9,0.8c-1.5,0.2-2.8-0.1-3.2-0.7
			C47.2,12.7,45.6,13.5,44.5,15.4"/>
		<path id="XMLID_815_" class="st12" d="M44.6,16.2c0,3.2,1.9,5.8,5.6,7.8c0,0-0.4-0.7-1.1-2.1c2.2-2.1,5.1-3.4,8.9-4
			c-1-0.3-2.3-0.5-3.8-0.5c1.9-1.6,3.8-2.5,5.8-2.7c-1.6-0.6-4.1-0.8-7.4-0.7c-1.5,0.4-2.7,0.1-3.5-0.7
			C46.9,13.1,45.4,14.1,44.6,16.2"/>
		<path id="XMLID_814_" class="st6" d="M50.1,23.9L50.1,23.9L50.1,23.9L49,21.8l0.1-0.1c-0.4-0.8-0.4-1.5,0-2.1c0,0,0.6-0.9,1.9-2.6
			c0.1-0.6-0.1-0.9-0.7-0.9c-0.1,0-0.8-0.2-2.3-0.5c0,0-0.3-0.3-0.9-0.8c-0.8-0.4-1.4-0.4-1.8-0.1l0,0l-0.1,0.1
			c0.7-0.4,1.5-0.1,2.5,0.9c0.4,0.4,1.2,0.6,2.3,0.6c0.3,0,0.6,0.1,0.7,0.3c0.1,0.2-0.3,0.9-1.3,1.9c-0.4,0.5-0.8,0.9-1,1.3
			C48.2,20.5,48.7,21.9,50.1,23.9"/>
		<path id="XMLID_813_" class="st6" d="M49.5,15.2c-1.1-0.4-1.7-0.6-1.7-0.6c0.7-0.1,1.3-0.1,1.6,0.1C49.6,14.8,49.6,15,49.5,15.2"
			/>
		<path id="XMLID_812_" class="st6" d="M53.7,16.3c1.9-1.3,4-1.8,6.2-1.6c-2.5,0-5,0.9-6.3,2.2c-1.2,1.2-2,1.6-3.3,1.6
			C52,17.9,53.1,17.1,53.7,16.3"/>
		<path id="XMLID_808_" class="st13" d="M44.6,16.2c0,2.8,1.5,5.1,4.3,7c-1.2-2.1-2-3.8-2.3-5.2c0,0.8,0,1.6,0.2,2.3
			c-1.1-3-1.3-4.9-0.4-5.8c-0.2-0.1-0.5-0.1-0.7-0.1C45.3,14.8,44.9,15.4,44.6,16.2 M49.2,21.7c2.1-2,5.1-3.3,8.7-3.8
			c-1-0.3-2.3-0.5-3.8-0.5c-1.3,1-2.6,1.4-3.8,1.2C49,19.4,48.6,20.5,49.2,21.7z M59.9,14.7c-1.6-0.6-4.1-0.8-7.4-0.7
			c-1.5,0.4-2.7,0.1-3.5-0.7c0.7,0.9,1.9,1.7,3.7,2.2c0,0-0.6,0-1.8-0.1c1.4,0.7,2.6,0.8,3.7,0.2C56.5,14.9,58.3,14.6,59.9,14.7z"/>
		<path id="XMLID_807_" class="st2" d="M49.1,21.8c0.1-0.1,0.2-0.2,0.2-0.2c0.1-0.1,0.1-0.1,0.1-0.1c-0.4-0.7-0.4-1.4,0.1-1.9
			c0,0,0.3-0.3,0.8-1c1.1-0.1,2.2-0.7,3.1-1.8c1.6-1.5,3.7-2.2,6.5-2.1c-3-0.3-5.2,0.3-6.7,1.8c-0.9,1-1.8,1.4-2.6,1.4
			c0.9-1.1,0.8-1.8-0.2-2c0,0-0.5-0.1-1.5-0.2c-0.5-0.1-0.8-0.3-1-0.5c-0.7-0.8-1.4-1.1-2.2-0.9c-0.1,0.1-0.3,0.3-0.4,0.4
			c0.6-0.6,1.5-0.3,2.5,0.7c0.2,0.3,1,0.5,2.5,0.6c0.7,0.1,0.9,0.5,0.4,1.2c0,0-0.5,0.7-1.7,2C48.6,20.1,48.5,20.9,49.1,21.8"/>
		<path id="XMLID_806_" class="st2" d="M54.2,13c-1.1,0.1-2,0.4-1.9-0.3c1.4-2.6,2.5-3.5,3.9-3.7c-1,0.4-1.4,0.7-2.4,2.2
			c1.4-1.7,3.9-2.4,7.3-2.2c-1.6,0.4-2.9,1.3-4,2.6C56.5,12.5,55.5,12.9,54.2,13"/>
		<path id="XMLID_805_" class="st14" d="M58,9.8c-0.5,0.4-0.9,0.9-1.3,1.4C56,12,55,12.3,54,12.4l0,0c0,0-0.1,0-0.2,0l0.5-0.6
			C55.1,10.7,56.5,10.1,58,9.8"/>
		<path id="XMLID_803_" class="st2" d="M47.8,14.6c1.2,0,1.8,0.2,1.7,0.6C49.2,15.5,48.7,15.3,47.8,14.6"/>
		<path id="XMLID_802_" class="st13" d="M50.1,17.3c-0.8,0.8-1.3,1.5-1.7,2c0,0,0-0.9-0.1-2.8c0.7,0.2,1.2,0.2,1.6,0.2
			C50.3,16.7,50.4,16.9,50.1,17.3"/>
		<path id="XMLID_800_" class="st1" d="M64.8,67.9l-5.9-0.1h-1L49,67.6c-1.4,2.5-3.3,4.7-5.8,6.5c-1.5,2.1-3.3,3.7-5.3,4.9
			l-0.3,11.4c7.3-3.9,16.6-5.6,26.9-5.1c10.3,0,19.3,2.2,26.4,6.4c0.2-7.7,0.4-15.4,0.6-23.1l-19.7-0.5L64.8,67.9z"/>
		<path id="XMLID_792_" class="st15" d="M80.4,70.6c2.6,0.1,5.2,0.1,7.9,0.2c0,0.8,0,1.6-0.1,2.4c-1.7-0.1-3.3-0.3-5-0.4
			c0,0.7,0,1.3,0,2s0,1.3,0,2c1.3,0.2,2.6,0.4,3.9,0.7c-1.3,0.5-2.7,1-4,1.5c0,0.8,0,1.5-0.1,2.3c0,0.8,0,1.5-0.1,2.3
			c1.6,0.5,3.3,1.1,4.9,1.7c0,0.8,0,1.6-0.1,2.4c-2.6-1.1-5.2-2-7.8-2.8c0.1-2.4,0.1-4.7,0.2-7.1C80.3,75.3,80.4,73,80.4,70.6
			 M71.4,70.4c1,0,1.9,0,2.9,0.1c0,1.8-0.1,3.7-0.1,5.5s-0.1,3.7-0.1,5.5c1.6,0.3,3.1,0.6,4.7,0.9c0,0.7,0,1.3,0,2
			c-2.5-0.6-5.1-1.1-7.6-1.4c0.1-2.1,0.1-4.2,0.2-6.3C71.3,74.5,71.4,72.4,71.4,70.4z M65,82.6c-1.4,0-2.5-0.3-3.2-0.8
			s-1.1-1.3-1-2.3c0-1.1,0.1-2.2,0.1-3.2c0-1.1,0.1-2.2,0.1-3.2s0.4-1.8,1.2-2.3c0.7-0.5,1.8-0.8,3.2-0.7c1.4,0,2.5,0.3,3.2,0.9
			s1.1,1.3,1,2.3c-0.9,0.3-1.8,0.6-2.7,0.9c0-0.4,0-0.8,0-1.2c0-0.8-0.5-1.2-1.5-1.2s-1.5,0.4-1.5,1.2c0,1.1-0.1,2.2-0.1,3.3
			c0,1.1-0.1,2.2-0.1,3.3c0,0.8,0.5,1.2,1.5,1.2s1.5-0.3,1.5-1.1c0-0.8,0-1.6,0.1-2.4c-0.5,0-1,0-1.4-0.1c1.4-0.5,2.8-1.1,4.2-1.6
			c0,0.7,0,1.4,0,2c0,0.7,0,1.4,0,2c0,1-0.4,1.7-1.2,2.2C67.4,82.5,66.4,82.6,65,82.6z M55.9,78.5c-0.2-1-0.4-2.1-0.6-3.1
			c-0.2-1.1-0.4-2.1-0.6-3.2c0,0,0,0-0.1,0c-0.3,1.4-0.6,2.7-0.9,4.1c-0.3,1.4-0.6,2.8-0.9,4.2C53.9,79.9,54.9,79.2,55.9,78.5z
			 M53,69.9c1.3,0,2.6,0.1,3.9,0.1c0.4,2.1,0.9,4.2,1.3,6.3c0.4,2.1,0.9,4.1,1.3,6.2c-1,0.1-1.9,0.1-2.9,0.2
			c-0.2-0.8-0.3-1.6-0.5-2.5l0,0c-1.1,0.1-2.2,0.2-3.3,0.3c-0.2,0.9-0.4,1.8-0.6,2.7c-0.9,0.2-1.8,0.3-2.7,0.5
			c0.6-2.4,1.1-4.7,1.7-7.1C51.9,74.4,52.4,72.1,53,69.9z M44,73.4V74c0,0.7,0,1.4,0,2.1c1.3-0.2,2.6-0.3,4-0.4
			c-1.3,0.8-2.7,1.7-4,2.7c0,0.8,0,1.6-0.1,2.4c0,0.8,0,1.6-0.1,2.4c1.7-0.5,3.3-0.8,5-1.2c0,0.7,0,1.3,0,2
			c-2.6,0.7-5.3,1.5-7.9,2.5c0.1-2.8,0.1-5.6,0.2-8.4v-1.6c0.8-0.7,1.5-1.6,2.1-2.5C43.5,73.9,43.8,73.6,44,73.4z M47.6,69.8h1.5
			c0,0.7,0,1.3,0,2c-1.1,0-2.2,0-3.3,0.1C46.4,71.2,47,70.5,47.6,69.8z"/>
		<path id="XMLID_770_" class="st3" d="M85.4,77.7c0.1,0,0.2-0.1,0.4-0.1c-0.4-0.1-0.8-0.1-1.2-0.2C84.8,77.5,85.1,77.6,85.4,77.7
			 M80.6,78.5l-0.1,6c2.4,0.7,4.7,1.6,7.1,2.6c0-0.5,0-1.1,0-1.6c-1.5-0.6-3.1-1.1-4.7-1.6l-0.3-0.1v-0.3c0-0.8,0-1.5,0.1-2.3v-2.1
			C82,78.9,81.3,78.7,80.6,78.5z M80.6,76.9v0.6c0.9,0.3,1.8,0.6,2.7,0.9c0.3-0.1,0.6-0.2,0.9-0.3C83.1,77.7,81.9,77.3,80.6,76.9z
			 M80.7,75.4V76c0.7,0.2,1.4,0.4,2.1,0.7v-0.6C82.1,75.9,81.4,75.7,80.7,75.4z M71.6,76.7l-0.1,5.9c2.3,0.3,4.6,0.8,6.8,1.3
			c0-0.4,0-0.8,0-1.2c-1.5-0.3-2.9-0.6-4.4-0.8l-0.3-0.1v-0.3l0.1-4.5C73.1,76.9,72.4,76.8,71.6,76.7z M71.7,75.2v0.6
			c0.7,0.1,1.4,0.2,2.1,0.3V76v-0.5C73.1,75.3,72.4,75.3,71.7,75.2z M71.7,73.7v0.6c0.7,0.1,1.4,0.2,2.1,0.3V74
			C73.1,73.9,72.4,73.8,71.7,73.7z M67.1,73.3v0.4c0.2,0,0.4-0.1,0.6-0.1c0.3,0,0.7-0.1,1-0.2C68.2,73.4,67.7,73.3,67.1,73.3z
			 M63.4,73.8v-0.6c-0.7,0-1.4,0-2.1,0v0.6C62,73.8,62.7,73.8,63.4,73.8z M63.4,75.3v-0.6c-0.7,0-1.4,0-2.1,0v0.6
			C61.9,75.3,62.6,75.3,63.4,75.3z M68.6,76.4c-0.5,0.2-1,0.4-1.6,0.6v0.4c0,0.8,0,1.6-0.1,2.4c0,1.1-0.9,1.5-1.9,1.5
			s-1.9-0.5-1.8-1.6c0-1.1,0.1-2.2,0.1-3.3v-0.1c-0.7,0-1.4,0-2.1,0v0.1c0,1.1-0.1,2.2-0.1,3.2c0,0.8,0.2,1.5,0.9,2
			c0.8,0.6,2,0.7,3,0.7s2.2,0,3-0.6c0.7-0.4,1-1.1,1-1.9c0-0.7,0-1.4,0-2v-1.3C68.9,76.4,68.8,76.4,68.6,76.4z M52.6,72.9
			c-0.1,0.2-0.1,0.5-0.2,0.7C52.5,73.4,52.6,73.1,52.6,72.9z M55.9,76.5c0.1,0.7,0.2,1.3,0.4,2v0.2l-0.2,0.1
			c-0.6,0.4-1.2,0.8-1.8,1.2c0.5,0,1-0.1,1.5-0.1l0,0l0.7-0.1l0.1,0.3c0.1,0.7,0.3,1.4,0.4,2.1c0.7-0.1,1.4-0.1,2.1-0.2
			c-0.4-1.9-0.8-3.8-1.3-5.8v-0.1C57.2,76.4,56.5,76.4,55.9,76.5z M55.6,75l0.1,0.3v0.3c0.6-0.1,1.3-0.1,1.9-0.2l-0.1-0.6
			C56.9,74.9,56.3,74.9,55.6,75z M55.4,73.5l0.1,0.6c0.6-0.1,1.2-0.1,1.8-0.2c0-0.2-0.1-0.4-0.1-0.6C56.6,73.4,56,73.5,55.4,73.5z
			 M53.9,74.3c0-0.2,0.1-0.4,0.1-0.6c-0.6,0.1-1.1,0.2-1.7,0.2c-0.1,0.2-0.1,0.5-0.2,0.7l0,0C52.8,74.5,53.3,74.4,53.9,74.3z
			 M53.5,75.8c0-0.2,0.1-0.4,0.1-0.6c-0.6,0.1-1.1,0.2-1.7,0.3c-0.1,0.2-0.1,0.4-0.2,0.6C52.4,76,53,75.9,53.5,75.8z M52.6,80.5
			c0.3-1.2,0.5-2.5,0.8-3.7c-0.6,0.1-1.2,0.2-1.7,0.3c-0.5,2.1-1,4.1-1.5,6.2c0.6-0.1,1.3-0.2,1.9-0.3
			C52.2,82.1,52.4,81.3,52.6,80.5z M41.4,80l-0.1,5.9c2.3-0.9,4.7-1.7,7.2-2.3c0-0.4,0-0.8,0-1.3c-1.5,0.3-3,0.7-4.5,1.1l-0.5,0.1
			V83c0-0.8,0-1.6,0.1-2.4v-1.5C42.8,79.4,42.1,79.7,41.4,80z M41.4,78.5v0.7c0.7-0.3,1.4-0.6,2.2-0.8v-0.2l0.2-0.1
			c0.4-0.3,0.8-0.5,1.2-0.8C43.7,77.6,42.5,78,41.4,78.5z M44.9,76.3c-0.3,0-0.6,0.1-0.8,0.1l-0.4,0.1v-0.4
			c-0.7,0.3-1.5,0.5-2.2,0.8v0.7C42.5,77.2,43.7,76.7,44.9,76.3z"/>
	</g>
</g>
</svg>
