<?xml version="1.0" encoding="utf-8"?>
<!-- Generator: Adobe Illustrator 26.0.0, SVG Export Plug-In . SVG Version: 6.00 Build 0)  -->
<svg version="1.1" id="Layer_1" xmlns="http://www.w3.org/2000/svg" xmlns:xlink="http://www.w3.org/1999/xlink" x="0px" y="0px"
	 viewBox="0 0 71.2 103.5" style="enable-background:new 0 0 71.2 103.5;" xml:space="preserve">
<style type="text/css">
	.st0{opacity:3.000000e-02;}
	.st1{fill-rule:evenodd;clip-rule:evenodd;fill:#5AC2FF;}
	.st2{fill-rule:evenodd;clip-rule:evenodd;fill:#2D2D2D;}
	.st3{fill-rule:evenodd;clip-rule:evenodd;}
	.st4{fill-rule:evenodd;clip-rule:evenodd;fill:#778399;}
	.st5{fill-rule:evenodd;clip-rule:evenodd;fill:#394253;}
	.st6{fill-rule:evenodd;clip-rule:evenodd;fill:#D0E1FB;}
	.st7{fill-rule:evenodd;clip-rule:evenodd;fill:#FFFFFF;}
	.st8{fill-rule:evenodd;clip-rule:evenodd;fill:#1A1A1A;}
	.st9{fill-rule:evenodd;clip-rule:evenodd;fill:#6E7178;}
	.st10{fill-rule:evenodd;clip-rule:evenodd;fill:#CED5DF;}
	.st11{fill-rule:evenodd;clip-rule:evenodd;fill:#4D4D4D;}
	.st12{fill-rule:evenodd;clip-rule:evenodd;fill:#FEFEFE;}
	.st13{fill-rule:evenodd;clip-rule:evenodd;fill:#FFBE1A;}
	.st14{fill-rule:evenodd;clip-rule:evenodd;fill:#DB740B;}
	.st15{fill-rule:evenodd;clip-rule:evenodd;fill:#2DA4E0;}
	.st16{fill:#FFFFFF;}
</style>
<g id="XMLID_3095_" class="st0">
	<g id="XMLID_1767_">
		<path id="XMLID_903_" class="st1" d="M67.4,6c3.6,1.3,7,3.5,10,6c1.9-0.7,3.7-1.6,5.3-2.8l1.5-1.1l1.1,1.5
			c5.4,7.1,12.3,11.7,21,13.4l1.2,0.2l0.3,1.2c3.6,16.7-1.7,31.9-11.5,45.3v0.8C96.2,78.3,96,86,95.8,93.7L95.7,97l-2.8-1.7
			c-4.7-2.8-10.1-4.6-15.5-5.6c-2.9,2.4-5.8,4.8-8.8,7l-1.1,0.9l-1.1-0.9c-3.2-2.4-6.3-4.9-9.3-7.5c-5.4,0.7-10.8,2.2-15.6,4.8
			l-2.9,1.5l0.3-11.8c-1.6,0.3-3.2,0.1-4.7-0.7l-0.4-0.2l-0.3-0.3c-7.2-6.2-12.2-14.6-15.8-23.3c-1-0.5-1.9-1.2-2.7-1.9
			c-3.1-0.7-5.8-2.2-8.1-4.5l-0.2-0.2l-0.2-0.2c-3.1-4.2-4.1-9.1-3.2-14.2l0,0l0,0c1.5-7.6,6.9-11.7,14.3-12.9l0.3-0.1h0.4
			c2.9,0,5.8,0.6,8.3,2.1c0.1-0.9,0.3-1.8,0.5-2.7l0.3-1.2l1.2-0.2c5.7-1.1,10.7-3.6,15.1-7.4c0.3-1.9,1.1-3.6,2.2-5.1l4.7-6.6
			L51.5,7c2.7-1.7,5.8-2.7,9-3.3L69.6,2l-2.5,3.4C67.2,5.6,67.3,5.8,67.4,6"/>
		<path id="XMLID_902_" class="st2" d="M51,10.7c13.5,5.9,24.7,6,32.8,0.1C89.6,18.5,97,23.2,106,25c5.1,23.7-7.7,47.1-38.5,70.3
			C36.8,72.1,24,48.7,29.1,25C38.1,23.2,45.2,18.3,51,10.7"/>
		<path id="XMLID_899_" class="st3" d="M35.2,56.3c-0.5,0.4-1.1,0.8-1.7,1.2c0.5,0.4,1,0.8,1.5,1.1C35,57.9,35.1,57.1,35.2,56.3
			 M26.9,29.7c1.4,0,2.8,0.2,4.2,0.5l0.2,0.1l0.2,0.1c6.5,2.9,9.7,8,9.4,14.9c0.8-3.2,2.5-6.2,5-8.6c2-1.9,4.4-3.3,7-4.2l0.7-0.6
			c2.9-2.4,6.7-4.7,10.1-6.5c3.2-1.7,6.7-3.1,10.2-4c3.9-1,7.9-1.4,11.9-0.8h0.1H86c7,1.4,14.6,4.6,16.1,12.3V33v0.1
			c0.2,1.7,0.9,3,2.3,3.9l1.4,1l-0.4,1.6c-2.2,8.9-5.4,17.4-10,25.3l0,0l0,0c-6.3,10.4-13.7,16.3-24.7,21.7h-2h-1.5
			c-4.6-4.8-9.5-7.8-13.1-13.5L53.4,72l2.2-5.4c-0.1,0.2-0.2,0.4-0.3,0.7v0.1l-0.1,0.1c-1.8,2.9-4.3,5.2-7.2,7l-1.4,0.8
			c-1.6,2.3-3.5,4.2-6,5.7h-0.1h-0.1c-1.7,0.9-3.7,1.2-5.5,0.2l-0.2-0.1l-0.2-0.2c-7.1-6.2-12-14.6-15.6-23.2
			c-1.2-0.6-2.3-1.3-3.3-2.3c-2.9-0.5-5.5-1.9-7.6-4.1l-0.1-0.1H8c-2.8-3.7-3.6-8.1-2.8-12.7l0,0l0,0c1.4-6.8,6.2-10.3,12.8-11.4
			h0.2h0.2C21.5,27.1,24.5,27.8,26.9,29.7z"/>
		<path id="XMLID_898_" class="st3" d="M55.7,58.5c2.9,3,4.6,6.7,5,10.9c-0.7-1.4-1.3-2.5-2.1-3.5l-2.4,5.9
			c3.2,5,7.3,10.1,12.3,15.3c10.1-5,18.4-12.7,24.7-23.2c4.3-7.4,7.5-15.6,9.7-24.7c-1.9-1.4-3-3.2-3.3-5.6
			c-1.1-5.2-5.8-8.7-14.2-10.4C70.6,21.2,55.2,34,55.2,34c0.3,0.3,0.4,0.5,0.4,0.5c-7.6,1.7-13.3,7.9-12.8,17.1l-1.2-2
			c-3.6,3-4.8,7.7-3.9,14.2c-2.9-1.9-5.8-4.1-9-6.7c5.5-2,8.7-5.7,9.5-11c0.6-6.3-2-10.8-7.8-13.4c-1.4-0.4-2.9-0.5-4.5-0.5
			c-1.8-1.8-4.3-2.6-7.6-2.6c-6.1,1-9.7,4.1-10.7,9.4c-0.7,4.1,0,7.7,2.3,10.8c1.9,2,4.3,3.1,7.2,3.5c0.8,1.1,2.1,2.1,3.9,2.8
			c4,10.1,9.1,17.8,15.3,23.2c0.8,0.5,1.9,0.4,3.1-0.3c3.5-2,6.1-5.5,8-10.5l-0.7,4c2.8-1.7,4.9-3.8,6.3-6.2
			C54.6,63.1,55.5,60.5,55.7,58.5"/>
		<path id="XMLID_897_" class="st4" d="M63.8,82c1.5,1.7,3,3.4,4.7,5.1c5.8-2.9,11.1-6.7,15.7-11.4c1-2.4,1.7-4.7,2.3-7.1
			c-6.1,3.4-14,3.8-23.7,1.1c0.4,1.7,0.2,3.5-0.8,5.3c-0.3-1.8-1.3-4.2-3.1-7.1l-1.3,4.4L63.8,82z"/>
		<path id="XMLID_896_" class="st5" d="M63.8,82c1.5,1.7,3,3.4,4.7,5.1c0.8-0.4,1.6-0.8,2.4-1.3l-6.1-5.1c-0.3-2.6-0.1-5.6,0.4-9.2
			c0.9,0,2.5,0,4.8-0.2l0,0c-2.3-0.3-4.8-0.8-7.4-1.5c0.4,1.7,0.2,3.5-0.8,5.3c-0.3-1.8-1.3-4.2-3.1-7.1l-1.3,4.4L63.8,82z"/>
		<path id="XMLID_895_" class="st4" d="M93.3,63.9c4.3-7.4,7.5-15.6,9.7-24.7c-2.5,3-5,5.2-7.5,6.6c2.8-3,4.3-6.6,4.5-10.6l0,0
			c-0.2-0.5-0.3-1.1-0.4-1.7c-1.1-5.2-5.8-8.7-14.2-10.4c-0.5-0.1-1-0.1-1.5-0.2l0,0c-2.2-0.1-4.4,0-6.5,0.4c2.3,1,4.9,1.6,7.9,1.8
			c0,0-0.9,0.8-2.6,2.4c-4.2,4.2-3.1,9.1,3.4,14.8c2.9-0.2,5.3,0.8,7,3.1c-1.8-1.3-3.4-1.6-4.7-0.9C86.4,49.8,88.1,56.3,93.3,63.9"
			/>
		<path id="XMLID_894_" class="st4" d="M85.4,52.2c-4.4,2.9-8.7,3.9-12.7,2.7c-4-0.7-4.9-7.3-3-18C75.1,37.1,80,40,84.3,46
			c-0.5-1.9-1.6-3.6-3.3-5C85.9,43.2,87.3,47.6,85.4,52.2"/>
		<path id="XMLID_893_" class="st4" d="M57.9,57.7c2.7,1.2,6,0.3,10-2.6c-1-5.6-0.8-11.7,0.5-18.3c-9.9,2.9-13.9,8.1-11.9,15.5
			c-2.8-3.7-2.6-7.7,0.6-12.1c-5,3.9-6.7,7.8-4.9,11.8C53.9,54.3,55.8,56.2,57.9,57.7"/>
		<path id="XMLID_892_" class="st5" d="M75.1,35.1c-3.2-0.2-4.8-0.4-4.8-0.4c2.8,1,5.9,2.1,9.2,3.1c-1.5-3.6-1.4-6.8,0.3-9.6
			C77.1,30,75.6,32.3,75.1,35.1"/>
		<path id="XMLID_891_" class="st4" d="M75.1,35.1c-3.2-0.2-4.8-0.4-4.8-0.4s2.3,0.4,6.8,1.1c-0.2-3.4,0.7-5.9,2.7-7.6
			C77.1,30,75.6,32.3,75.1,35.1"/>
		<path id="XMLID_890_" class="st5" d="M60.1,59.2c2.5,1.1,6.1,1.3,10.9,0.5c-0.3-3.3-1.2-4.6-2.7-3.9
			C65.5,58.1,62.7,59.2,60.1,59.2"/>
		<path id="XMLID_889_" class="st5" d="M64.1,63.3c3.3,0.6,5.7,1.2,7.1,1.9c0.3-1.2,0.3-2.7-0.2-4.5c-3.1,0.7-6.1,0.8-9,0.2
			c1.2,1.6,3.5,2.5,7,2.7C65.8,63.4,64.1,63.3,64.1,63.3"/>
		<path id="XMLID_888_" class="st4" d="M71.3,66c-0.2,1.7-0.4,2.9-0.7,3.8c-1.2,0-2.4-0.1-3.6-0.4c-3.6-0.8-5.4-2.6-5.6-5.5
			C63.2,64.9,66.6,65.6,71.3,66"/>
		<path id="XMLID_887_" class="st5" d="M72.5,60.4c4.1-0.6,7.8-1.5,10.9-2.6c-2.5,0.3-6.2,0.8-11,1.4c0,0-0.2-1-0.7-2.9
			c6.5,1.2,11.3,0.2,14.3-2.9c1.8,2.9,2.5,5.5,2.3,7.7c-3.9,2.6-9.1,4-15.6,4C72.5,62,72.5,60.4,72.5,60.4"/>
		<path id="XMLID_886_" class="st5" d="M72.6,66.2C72.5,68.1,72,70,72,70c5.3,0.4,10.6-0.2,14.7-3c0.9-1.3,1.4-2.9,1.5-4.9
			C83.7,65,78.5,66.3,72.6,66.2"/>
		<path id="XMLID_885_" class="st5" d="M80.4,52.6c-5.3-0.1-9.2-2.1-11.7-6.1c0,5,1.4,8,4,8.5c4,1.1,8.2,0.2,12.7-2.7
			c1.9-4.6,0.5-9-4.4-11.1c1.7,1.4,2.8,3.1,3.3,5c1.1,5-1.5,6.5-8,4.5C77.5,51.4,78.8,52.1,80.4,52.6"/>
		<path id="XMLID_884_" class="st5" d="M67.9,55.1c-7.7,0.3-12.3-1.2-13.6-4.6c0.1,1.4,0.5,2.5,1.3,3.4c-3.4-1.9-4.4-4.9-3-9
			c-1.4,2.3-1.5,4.7-0.4,7.1c1.7,2.3,3.6,4.2,5.7,5.8C60.6,59,63.9,58.1,67.9,55.1"/>
		<path id="XMLID_883_" class="st4" d="M70.7,57.5c-0.7-0.7-1.6-0.6-2.7,0.1c-1.4,1.1-2.6,1.8-3.7,2.1c0.7,0.2,1.6,0.3,2.6,0.5
			c1.3-0.1,2.7-0.2,4.2-0.5C70.9,58.8,70.8,58.1,70.7,57.5"/>
		<path id="XMLID_882_" class="st4" d="M67,61.2c0.3,0.9,1.2,1.8,2.6,2.5l-1,0.5c1.1,0.3,2,0.6,2.7,1c0.3-1.2,0.3-2.7-0.2-4.5
			C69.7,61,68.3,61.2,67,61.2"/>
		<path id="XMLID_881_" class="st5" d="M68.7,69.7c-2.9-0.7-4.8-2.3-5.8-4.6c1.5,0.3,3.2,0.5,5.2,0.6c-3.1-0.4-5.3-1-6.8-1.8
			c0.2,2.9,2.1,4.8,5.6,5.5C67.5,69.5,68.1,69.6,68.7,69.7"/>
		<path id="XMLID_880_" class="st4" d="M83.4,57.8c-2.7,1-5.7,1.8-9.1,2.3C75.6,62,77.5,63,80,63h-3.1c2.7,0.9,6.5,0.3,11.4-2
			c0.3-2.2-0.5-4.8-2.3-7.7c-0.9,2.8-4.4,4.7-10.4,5.5C78.9,58.3,81.5,58,83.4,57.8"/>
		<path id="XMLID_879_" class="st4" d="M76,66.1c1.3,1.3,3,2.1,5.1,2.3c-1.2,0.3-2.3,0.3-3.5,0.1c2.6,1,5.6,0.5,9-1.5
			c0.9-1.3,1.4-2.9,1.5-4.9C84.6,64.4,80.5,65.7,76,66.1"/>
		<path id="XMLID_878_" class="st6" d="M60.2,44c-2.6,6.2-0.1,9.6,7.5,10.2c-0.8-5.3-0.6-11.1,0.6-17.4c-9.9,2.9-13.9,8.1-11.9,15.5
			C56.6,48.7,57.9,45.9,60.2,44"/>
		<path id="XMLID_877_" class="st6" d="M68.8,44.6c1.4,1.7,4.1,3.5,8.3,5.4c-1.9-1.5-3.2-2.8-4.1-3.7c7.4,4.2,10.6,3.5,9.7-2.3
			c-3.9-4.6-8.2-6.8-12.9-7C69.2,39.8,68.9,42.3,68.8,44.6"/>
		<path id="XMLID_876_" class="st6" d="M71,59.7c-0.2-1.1-0.2-1.7-0.2-1.7c-0.9-0.2-2,0.2-3.3,1.4c0.6,0.4,1.4,0.5,2.3,0.5
			C70.6,59.8,71,59.7,71,59.7"/>
		<path id="XMLID_875_" class="st6" d="M69.1,66.7L65,66.8l5.5,3c0.3-0.8,0.5-2.1,0.7-3.8c-0.6-0.1-1.2-0.1-1.7-0.2
			C69.4,66.1,69.3,66.4,69.1,66.7"/>
		<path id="XMLID_874_" class="st6" d="M69.9,64.6c0.5,0.2,1,0.4,1.4,0.6c0.3-1.2,0.3-2.7-0.2-4.5c-0.9,0.2-1.7,0.3-2.6,0.4
			C69.3,61.6,70,62,70,62C70,63,70,63.9,69.9,64.6"/>
		<path id="XMLID_873_" class="st6" d="M88.3,60.4c0-1.9-0.5-3.7-1.4-5.4c-0.9,0.9-1.8,1.6-2.8,2.1c1.2,0.1,1.9,0.1,1.9,0.1
			c-4,1.2-7.4,2.1-10.1,2.7c2.5,1.1,5.2,1.3,8.4,0.6c-1.4,0.7-3,1-5,1C81.6,62.2,84.6,61.8,88.3,60.4"/>
		<path id="XMLID_872_" class="st6" d="M88.2,62.1c-3.1,2-6.4,3.2-10.1,3.8c2,1.1,4.3,1.4,7,1c-2.1,0.7-3.1,1-3.1,1
			c1.9-0.2,3.5-0.5,4.9-1C87.6,65.7,88.1,64.1,88.2,62.1"/>
		<path id="XMLID_871_" class="st6" d="M73.1,71.5l-1.8,2l0.7,7l2.9,2.9c3.3-2.2,6.4-4.8,9.3-7.7c1-2.4,1.7-4.7,2.3-7.1
			C82.7,70.8,78.2,71.7,73.1,71.5"/>
		<path id="XMLID_870_" class="st5" d="M88.4,44.6c-1.9,5.3-0.3,11.7,4.9,19.4c0.6-1,1.2-2.1,1.7-3.1c-3.4-3.7-5.5-8.9-5.1-13.2
			c0.3,1.9,0.8,4.6,3.3,9c-0.6-4.6-0.6-8.3-0.1-11.1C91.3,44.2,89.7,43.8,88.4,44.6"/>
		<path id="XMLID_869_" class="st5" d="M82.7,27.6c-4.2,4.2-3.1,9.1,3.4,14.8c1.3-0.1,2.5,0,3.5,0.4c-3.7-2.4-6.2-5.1-7.6-8.1
			c0.9,1.1,2.1,2.1,3.6,3c-3.2-3.8-3.4-7.9-0.4-12.5L82.7,27.6z"/>
		<path id="XMLID_868_" class="st6" d="M88.3,23.9C84,29,84.3,34,89.2,39.1c-1.4-2.9-1.7-5.2-1-7c-0.1,4.3,2.3,8.9,7.3,13.8
			c2.8-3,4.3-6.6,4.5-10.6c-0.2-0.5-0.3-1.1-0.4-1.7C98.7,29,94.9,25.8,88.3,23.9"/>
		<path id="XMLID_867_" class="st5" d="M95.5,45.9l4-0.1c0.3,1.8-0.2,4.4-1.3,7.9c1.9-4.6,3.5-9.4,4.7-14.5
			C100.5,42.3,98,44.5,95.5,45.9"/>
		<path id="XMLID_864_" class="st6" d="M94,50.6c0-0.9,0.2-1.9,0.3-2.8c2.4,0,4.1-0.1,4.1-0.1c0.1,0.8,0,1.7,0,2.5L94,50.6z
			 M95.6,59.7c-1-2.5-1.5-5-1.6-7.5l4.3-0.6C97.8,54.4,96.8,57.2,95.6,59.7z"/>
		<path id="XMLID_863_" class="st7" d="M88.3,23.9c6.6,2.3,10.2,6.1,10.8,11.4l-1.3-2.4c1.6,4.2,0.8,8.5-2.3,13
			c2.8-3,4.3-6.6,4.5-10.6c-0.2-0.5-0.3-1.1-0.4-1.7C98.7,29,94.9,25.8,88.3,23.9"/>
		<path id="XMLID_862_" class="st7" d="M67.2,38c-1,6.5-0.8,11.8,0.6,16.2c-0.8-5.3-0.6-11.1,0.6-17.4c-6.5,1.9-10.4,4.8-11.8,8.6
			C58,42.1,61.5,39.6,67.2,38"/>
		<path id="XMLID_861_" class="st7" d="M70.2,37.7c3,0.2,6.2,1.4,9.7,3.5c-3.1-2.7-6.5-4.1-10.2-4.2c-0.5,2.8-0.8,5.4-0.9,7.6
			C69.5,41.3,70,39,70.2,37.7"/>
		<path id="XMLID_858_" class="st4" d="M63.1,51.4c-1.1-0.3-2.1-0.8-2.8-1.6c0.6,1.1,1.5,1.9,2.6,2.4L63.1,51.4z M64.9,51.6
			c-0.5,0-0.9,0-1.3-0.1l-0.2,1c0.4,0.2,0.8,0.3,1.3,0.4C64.8,52,64.9,51.6,64.9,51.6z"/>
		<path id="XMLID_855_" class="st7" d="M96.1,37.9c0.3,1.5,0.4,3.3,0.2,5.5c0.7-2.2,1.1-4.1,1.2-5.8L96.1,37.9z M94.9,35
			c0.4,0.6,0.8,1.3,1,2.1l1.6-0.4c0-0.8-0.1-1.6-0.2-2.3C95.7,34.8,94.9,35,94.9,35z"/>
		<path id="XMLID_854_" class="st7" d="M87.6,63.1c0.1,1.3-0.2,2.6-0.8,3.8c0.4-0.6,0.7-1.2,0.9-1.9c0.3-0.9,0.4-1.8,0.5-2.9
			c-2.5,1.6-5.3,2.8-8.3,3.4C82.4,65.2,85,64.4,87.6,63.1"/>
		<path id="XMLID_851_" class="st7" d="M84.9,59h-3.7l3.7-1C85,58.4,85,58.7,84.9,59 M86.8,59h-1c0-0.4,0-0.7-0.1-1.1l1-0.3
			C86.7,58.1,86.8,58.5,86.8,59z"/>
		<path id="XMLID_848_" class="st7" d="M63.7,41.8c-0.2-0.4-0.3-0.8-0.3-1.1c0.8-0.4,1.6-0.8,2.4-1c-0.1,0.4-0.2,0.9-0.2,1.3
			C65,41.1,64.4,41.4,63.7,41.8 M65.6,45.1c-0.7-1-1.2-1.9-1.6-2.8c0.4-0.3,0.9-0.5,1.5-0.6C65.4,42.8,65.5,43.9,65.6,45.1z"/>
		<path id="XMLID_847_" class="st4" d="M80.1,44.7c1.3,0.5,1.9,0.7,1.9,0.7c0.3,2.9-1.6,3.5-5.4,1.7C80,47.7,81.1,46.9,80.1,44.7"/>
		<path id="XMLID_846_" class="st5" d="M45.4,41.5c-1.8,2.7-2.9,6.2-2.6,10.1c-0.8-1.3-1.2-2-1.2-2c-3.6,3-4.8,7.7-3.9,14.2
			c-2.9-1.9-5.8-4.1-9-6.7c5.5-2,8.7-5.7,9.5-11c0-0.1,0-0.2,0-0.3c-10.6,6.5-15.3,10-14.2,10.5c-0.2,2.7,1.8,7.5,6.2,14.4
			c0,0,0.2-1.1,0.6-3.4c0.5,2.9,2,5.9,4.5,9c1.4,1.5,3.5,1.8,6.5,0.9c2.3-2.1,4.1-5,5.5-8.7c-0.5,2.7-0.7,4-0.7,4
			c2.3-1.8,3.8-3.7,4.5-5.7c2.3-8.3,1-13.9-4.1-16.8c0,0,0.7,0.1,2.2,0.3c-0.2-6,1.4-10.6,4.8-14C50.4,37.1,47.5,38.8,45.4,41.5"/>
		<path id="XMLID_845_" class="st4" d="M43.3,46.3c-0.4,1.6-0.6,3.4-0.5,5.3c-0.8-1.3-1.2-2-1.2-2c-3.6,3-4.8,7.7-3.9,14.2
			c-2.3-1.5-4.6-3.2-7.1-5.2c0,0-0.1,2.1-0.3,6.4c0,0,0.6-0.2,1.8-0.7c1.3,5.8,4,9.1,8.1,10c3.7-3,5.7-8.4,6.1-16.1
			c1.5,2.1,1.9,5.5,1.1,10.1c3.8-9,3.1-15.3-2.3-18.8c0,0,0.7-0.3,2-0.9c0.1-3.1,0.6-5.9,1.6-8.1C46.9,41.3,45.1,43.2,43.3,46.3"/>
		<path id="XMLID_844_" class="st6" d="M43.1,46.9c-0.3,1.4-0.4,3-0.3,4.6c-0.8-1.3-1.2-2-1.2-2c-3.6,3-4.8,7.7-3.9,14.2
			c-1.8-1.2-3.5-2.5-5.4-3.9c2.9,8,5.7,11.3,8.2,9.9c-0.3,0.7-0.6,1.4-1.1,2.1c3.8-3,5.2-8.1,4.2-15.2c-0.5,2.1-0.7,3.1-0.7,3.1
			c-1-2.3-1-4.7,0.1-7.4c1.2,1.1,1.9,1.7,1.9,1.7C43.5,51.9,42.9,49.5,43.1,46.9"/>
		<path id="XMLID_843_" class="st8" d="M21,56c2.4,0.8,4.9,1.2,7.7,1.1c5.5-2,8.7-5.7,9.5-11c0.6-6.3-2-10.8-7.8-13.4
			c-1.4-0.4-2.9-0.5-4.5-0.5c-1.8-1.8-4.3-2.6-7.6-2.6c-6.1,1-9.7,4.1-10.7,9.4c-0.7,4.1,0,7.7,2.3,10.8c1.9,2,4.3,3.1,7.2,3.5
			C18,54.4,19.3,55.3,21,56"/>
		<path id="XMLID_842_" class="st1" d="M26,32.2c-1.8-1.8-4.3-2.6-7.6-2.6c-3.4,0.5-6,1.8-7.8,3.6C15.5,29.6,20.6,29.3,26,32.2"/>
		<path id="XMLID_841_" class="st3" d="M33.2,39.9c-3.9-4.6-8.3-4.9-13.1-1c3.7-3.7,7.7-4.3,12.2-1.9c3.4,2.7,4.6,6,3.6,9.9
			c-2.5,8.6-11.7,8.8-16.4,4.2c4.7,3.1,9.3,2.9,13.7-0.5c-3.2,1.9-6.6,2.3-10.3,1.2c2.7,0.4,5.4-0.5,7.9-2.5c-4.5,2-7.5,1.1-9-2.7
			c-0.3-3.9,1.3-6.2,4.8-6.8c2.7,0.1,4.4,1.3,5.2,3.9c-0.3-3-2.3-4.6-6-4.7C28.9,38.4,31.3,38.8,33.2,39.9"/>
		<path id="XMLID_838_" class="st9" d="M26.9,44c-0.9,1-1.4,1.4-1.4,1.4s1.4,0.6,4.1,1.9c0,0-1.1-0.7-3.2-2
			C26.3,45.3,26.5,44.9,26.9,44 M23.5,44.7c0.7-0.5,1.3-0.9,1.9-1.1c0,0,0.2-0.9,0.7-2.6c1.4,1,2.4,1.3,2.9,0.9
			c0.6-0.3,1.2-0.2,1.7,0.4c-0.1,0.8-0.3,1.5-0.8,2.2c1.2,0.4,1.8,0.5,1.8,0.5c0.7,0.6,0.9,1.4,0.5,2.4c-0.5,0.9-1.4,1.1-2.5,0.7
			c-0.2,0.9-0.6,1.3-1.3,1.2c-0.9-0.7-1.4-1.1-1.4-1.1c-0.8,0.4-1.5,0.7-2.2,0.7c-0.2-0.9-0.1-1.8,0.4-2.5
			C24.4,46.2,23.8,45.6,23.5,44.7z"/>
		<path id="XMLID_837_" class="st7" d="M29.9,44.6c1.2,0.4,1.8,0.5,1.8,0.5c0.7,0.6,0.9,1.4,0.5,2.4c-0.5,0.9-1.4,1.1-2.5,0.7
			c0,0-1.5-0.6-4.5-1.8c-0.8-0.3-1.4-0.8-1.7-1.8c0.7-0.5,1.3-0.9,1.9-1.1c-0.6,0.4-1,0.9-1,1.5c0,0,1.7,0.8,5.2,2.3l-3.2-2l0.5-1.2
			l0.3-0.3C27.2,43.7,28.1,44,29.9,44.6"/>
		<path id="XMLID_836_" class="st10" d="M26.8,44.1c-0.6,0.9-0.9,1.3-0.9,1.3s1.1,0.6,3.4,1.9c0,0,0.4,0.1,1.1,0.4
			c-0.2-0.7,0.1-1.3,0.9-2C28.3,44.6,26.8,44.1,26.8,44.1"/>
		<path id="XMLID_835_" class="st9" d="M26,45.3c0.3-0.5,0.5-0.7,0.5-0.7c2.2,1.1,3.3,1.7,3.3,1.7c-0.3,0.4-0.3,0.7-0.2,1.1
			C27.2,46,26,45.3,26,45.3"/>
		<path id="XMLID_834_" class="st3" d="M31.8,47c0.3-0.6,0.1-1-0.4-1.3c-0.7-0.1-1.2,0.3-1.3,1.2c-0.1,0.7,0.3,1,1.1,1.1
			c0.3-0.1,0.5-0.3,0.5-0.7c-0.5,0.3-0.8,0.3-0.9-0.1c-0.1-0.5,0.1-0.8,0.4-0.9C31.6,46.3,31.8,46.6,31.8,47"/>
		<path id="XMLID_833_" class="st10" d="M30.8,47.1c0.2,0.4,0.5,0.4,0.9,0.1c0,0.4-0.2,0.6-0.5,0.7c0.3,0,0.6-0.1,0.9-0.4
			c0.4-1.1,0.3-1.9-0.5-2.4c-0.1,0.1-0.2,0.3-0.3,0.6c0.5,0.3,0.6,0.7,0.4,1.3c0-0.4-0.2-0.7-0.5-0.8C30.9,46.3,30.8,46.6,30.8,47.1
			"/>
		<path id="XMLID_832_" class="st7" d="M31,47.1c0-0.4,0-0.6,0.3-0.7c0.3,0.1,0.5,0.3,0.6,0.6c0-0.4-0.2-0.7-0.5-0.8
			C31,46.3,30.9,46.6,31,47.1c0.2,0.4,0.5,0.4,0.9,0.1C31.3,47.4,31,47.3,31,47.1"/>
		<path id="XMLID_831_" class="st10" d="M24.8,48.9c0.6,0,1.4-0.2,2.2-0.7l1.4,1.1c0.7,0.2,1.1-0.2,1.3-1.2
			c-0.4,0.7-0.8,0.9-1.3,0.8l-1.2-1l0.3-0.6l-2.2-0.9C24.8,47.2,24.7,48,24.8,48.9"/>
		<path id="XMLID_830_" class="st3" d="M29.9,44.6c0.4-0.7,0.7-1.4,0.8-2.2c-0.8,0.7-1.5,1-2.1,1.1c0.6-0.5,0.9-0.7,0.9-0.7
			c-1.1,0.2-1.9,0.5-2.2,0.9C29,44.3,29.9,44.6,29.9,44.6"/>
		<path id="XMLID_829_" class="st3" d="M29.7,48.2l-2.2-0.9L27.2,48l1.2,1C28.9,49.2,29.3,48.9,29.7,48.2"/>
		<path id="XMLID_828_" class="st3" d="M33.9,54.2c-5.9,3.3-11.4,2.6-16.4-1.9C14,48,15.1,40.3,20,35.5c3.2-2.7,7.2-3.2,12-1.6
			c-3.9-1.9-7.8-1.7-11.6,0.5c-4.3,3.5-6.2,7.8-5.7,13.1c0.4,2.1,1.3,4,2.6,5.7c0.8,1.1,2.1,2.1,3.9,2.8c2.4,0.8,4.9,1.2,7.7,1.1
			C30.8,56.3,32.5,55.3,33.9,54.2"/>
		<path id="XMLID_827_" class="st3" d="M16.5,53.1c-2.5-2.6-3.3-6.3-2.2-11.1c2.3-6.3,6.2-9.5,11.7-9.7c-6.7-3.1-12-1.5-16,5
			c2.8-3.6,6.1-5.5,10.1-5.5c-4.7,1-7.5,3.4-8.2,7.4c1.2-3.6,3.6-5.6,7.3-5.9C14.4,36.2,12,40.8,12,47c-1.4-2.4-1.6-5.2-0.9-8.7
			c-1.8,4.2-1.4,8.2,1.1,12.1c-5-5.9-5.6-11.6-1.7-17.2C9,34.7,8.1,36.6,7.6,39c-0.7,4.1,0,7.7,2.3,10.8
			C11.8,51.6,13.9,52.7,16.5,53.1"/>
		<path id="XMLID_826_" class="st1" d="M20.3,34.5c3.9-2.3,7.8-2.4,11.6-0.5c-4.8-1.6-8.8-1.1-12,1.6c-0.3,0.3-0.6,0.7-0.9,1
			c5.4-4.7,11.4-4,18,2c-1.3-2.5-3.5-4.4-6.6-5.9c-1.4-0.4-2.9-0.5-4.5-0.5c-5.5,0.2-9.4,3.5-11.7,9.7c-1,4.9-0.3,8.6,2.2,11.1
			c0.2,0,0.5,0.1,0.7,0.1c-1.3-1.7-2.1-3.5-2.6-5.7C14.1,42.3,16,37.9,20.3,34.5"/>
		<path id="XMLID_825_" class="st11" d="M19.6,45.2c-0.3,1.7-0.4,3.6-0.2,5.9c-2.2-4.7-2-8.8,0.6-12.2c-0.3,1.2-0.3,2.5-0.3,3.7
			c0.9-4,3.8-5.8,8.7-5.4c-6-0.2-8.5,3.7-7.6,11.5C20,46.4,19.6,45.2,19.6,45.2"/>
		<path id="XMLID_824_" class="st7" d="M37.7,63.7c-0.4-5.6,0.9-9.9,3.8-12.9l1.3,0.7l-1.2-2C38,52.5,36.8,57.3,37.7,63.7"/>
		<path id="XMLID_823_" class="st4" d="M39.7,66.7c-1.3,0.6-2.5,0.2-3.7-1.2c1.1,2.5,2.6,3.7,4.5,3.6C40.5,68.3,40.2,67.5,39.7,66.7
			"/>
		<path id="XMLID_822_" class="st3" d="M75.4,84.5c-7.1-0.3-10.6-0.4-10.6-0.4c2.4,2.8,4.1,2.5,4.1,2.5C73.5,84,75.4,84.5,75.4,84.5
			"/>
		<path id="XMLID_821_" class="st7" d="M81.6,71.4c0,1.9-0.5,4.6-1.4,8c1.4-1.1,2.7-2.4,3.9-3.7c1-2.4,1.7-4.7,2.3-7.1
			c-3,1.7-6.4,2.6-10.2,2.8C78.5,71.8,80.3,71.8,81.6,71.4"/>
		<path id="XMLID_820_" class="st3" d="M69,34.5c5.3-0.7,10.7-0.2,16,1.1l2.9,0.7l-0.6-2.9c-0.6-3-1.6-6.2-3.1-9l2.6-0.1l-2.6-3
			c-5-5.7-12.4-13-20.4-14.5l1.6-2.2l-4.5,0.8C57,6.1,53.4,7.6,50.4,10L50,8.2l-2.3,3.3c-1.4,2-2.2,4.3-1.8,6.7
			c0.1,4,2.6,6.9,5.9,8.8c0.2,0.8,0.5,1.7,0.7,2.5l1,3.3c-0.1,0.3-0.1,0.7-0.2,1l-0.5,1.7l1.7,0.5c4,1.2,8,2.3,12.1,3.5l2.3,0.7
			l0.1-2.4C68.9,36.8,68.9,35.6,69,34.5"/>
		<path id="XMLID_819_" class="st6" d="M67,37.9c0,0,0.1-1.7,0.2-5c5.7-1,11.7-0.7,18.2,0.9c-1-4.7-2.5-8.5-4.6-11.1
			c0,0,0.6,0,1.9,0C74.4,13,66.9,8.3,60.3,8.6c0,0,0.3-0.4,0.9-1.2c-4.9,0.9-8.8,3-11.9,6.3c0,0-0.1-0.3-0.2-0.9
			c-1.3,1.9-1.8,3.7-1.5,5.5c0,1.7,0.6,3.3,1.7,4.7l0,0c2.7-3,6.9-3.9,12.7-2.7c2.1,0.9,4.1,1.6,5.9,2.2c-3.8,0.2-5.7,0.3-5.7,0.3
			c2.1,1.5,3.2,3.8,3.3,7c-2.1-2.1-3.9-2.9-3.9-2.9c1.7,1.9,3.2,4.4,3.5,7.5L61,32.1C62.2,34.5,64,36.6,67,37.9"/>
		<path id="XMLID_818_" class="st12" d="M85.4,33.8c-1-4.7-2.5-8.5-4.6-11.1c0,0,0.6,0,1.9,0C74.4,13,66.9,8.3,60.3,8.6
			c0.9,0.5,1.3,0.7,1.3,0.7c-1.8,0.1-3.4,0.6-4.9,1.5c0.6-0.7,1.1-1.2,1.5-1.5c-2.4,0.9-4.5,2-6.3,3.3c0.9-0.9,1.6-1.6,2.2-2
			c-1.4,0.6-3,1.7-4.8,3.1c3-3.3,7-5.4,11.9-6.3c-0.6,0.8-0.9,1.2-0.9,1.2c4.3,0.2,7.8,1.7,10.6,4.5c-1-0.3-2.1-0.5-3.6-0.5
			c1.3,0.3,3.2,1.4,5.9,3.4c0,0-0.8-0.1-2.3-0.4c3.4,2.1,6,4.3,8.1,6.8c0,0-1.4-0.1-4.2-0.2c2.8,1.7,5.4,4.4,7.7,8.3
			c0,0-1.5,0-4.4-0.1C79.9,31,82.4,32.2,85.4,33.8"/>
		<path id="XMLID_817_" class="st4" d="M67,37.9c0,0,0.1-1.7,0.2-5c2.2-0.4,4.4-0.6,6.7-0.6c-3.2-1.6-4.8-2.4-4.8-2.4
			c2.2-0.1,3.3-0.2,3.3-0.2c-2.8-2.9-4.2-4.4-4.2-4.4c4.1,0.4,7.4,1.5,10,3c-4.9-5.1-8.9-8.3-11.9-9.4c4.2,0.9,6.2,1.4,6.2,1.4
			c-2.8-2.6-5.2-4.5-7.4-5.6c2.6-0.1,4-0.1,4-0.1c-2.5-1.5-4.5-1.9-6.3-1.4c1.5-1.1,3-1.7,4.6-1.8c-2.6-1.3-5.3-1.4-8.3-0.4
			c-1.5,0.5-2.7,1.7-3.9,3.7c0.6-1.7,1.4-2.9,2.5-3.7c-1.4,0.8-2.5,1.7-3.2,2.7c0.3-0.8,0.7-1.5,1.2-2.1c-1.6,1.2-2.5,2.3-2.7,3.2
			c-0.4-0.6-0.5-1.2-0.4-2c-0.6,0.9-0.8,1.3-0.8,1.3c-0.1-0.4,0-0.7,0.1-1c-1.9,0.9-3.4,2.3-4.4,4.2c0,0.3,0,0.5,0.1,0.8
			c0,1.7,0.6,3.3,1.7,4.7l0,0c2.7-3,6.9-3.9,12.7-2.7c2.1,0.9,4.1,1.6,5.9,2.2c-3.8,0.2-5.7,0.3-5.7,0.3c2.1,1.5,3.2,3.8,3.3,7
			c-2.1-2.1-3.9-2.9-3.9-2.9c1.7,1.9,3.2,4.4,3.5,7.5L61,32.1C62.2,34.5,64,36.6,67,37.9"/>
		<path id="XMLID_816_" class="st3" d="M47.5,17.4c0,0.3,0,0.5,0.1,0.8c0,3.2,1.9,5.8,5.6,7.8c0.6,2.1,1,3.2,1,3.2
			c-0.1-2.2-0.6-3.9-1.5-5.1c2.1-2.2,5.2-3.5,9.3-4c-0.9-0.8-2-1.2-3.3-1.2c1.1-0.8,2.8-1.4,5.1-2c-1.1-1-3.5-1.5-7.2-1.4
			c0,0,0.4-0.2,1.3-0.6c0,0-0.9-0.1-2.6-0.2c-0.2,0.3-0.8,0.3-1.7,0.1c0,0,0.6,0.3,1.9,0.8c-1.5,0.2-2.8-0.1-3.2-0.7
			C50.2,14.7,48.6,15.5,47.5,17.4"/>
		<path id="XMLID_815_" class="st13" d="M47.6,18.2c0,3.2,1.9,5.8,5.6,7.8c0,0-0.4-0.7-1.1-2.1c2.2-2.1,5.1-3.4,8.9-4
			c-1-0.3-2.3-0.5-3.8-0.5c1.9-1.6,3.8-2.5,5.8-2.7c-1.6-0.6-4.1-0.8-7.4-0.7c-1.5,0.4-2.7,0.1-3.5-0.7
			C49.9,15.1,48.4,16.1,47.6,18.2"/>
		<path id="XMLID_814_" class="st7" d="M53.1,25.9L53.1,25.9L53.1,25.9L52,23.8l0.1-0.1c-0.4-0.8-0.4-1.5,0-2.1c0,0,0.6-0.9,1.9-2.6
			c0.1-0.6-0.1-0.9-0.7-0.9c-0.1,0-0.8-0.2-2.3-0.5c0,0-0.3-0.3-0.9-0.8c-0.8-0.4-1.4-0.4-1.8-0.1l0,0l-0.1,0.1
			c0.7-0.4,1.5-0.1,2.5,0.9c0.4,0.4,1.2,0.6,2.3,0.6c0.3,0,0.6,0.1,0.7,0.3c0.1,0.2-0.3,0.9-1.3,1.9c-0.4,0.5-0.8,0.9-1,1.3
			C51.2,22.5,51.7,23.9,53.1,25.9"/>
		<path id="XMLID_813_" class="st7" d="M52.5,17.2c-1.1-0.4-1.7-0.6-1.7-0.6c0.7-0.1,1.3-0.1,1.6,0.1C52.6,16.8,52.6,17,52.5,17.2"
			/>
		<path id="XMLID_812_" class="st7" d="M56.7,18.3c1.9-1.3,4-1.8,6.2-1.6c-2.5,0-5,0.9-6.3,2.2c-1.2,1.2-2,1.6-3.3,1.6
			C55,19.9,56.1,19.1,56.7,18.3"/>
		<path id="XMLID_808_" class="st14" d="M47.6,18.2c0,2.8,1.5,5.1,4.3,7c-1.2-2.1-2-3.8-2.3-5.2c0,0.8,0,1.6,0.2,2.3
			c-1.1-3-1.3-4.9-0.4-5.8c-0.2-0.1-0.5-0.1-0.7-0.1C48.3,16.8,47.9,17.4,47.6,18.2 M52.2,23.7c2.1-2,5.1-3.3,8.7-3.8
			c-1-0.3-2.3-0.5-3.8-0.5c-1.3,1-2.6,1.4-3.8,1.2C52,21.4,51.6,22.5,52.2,23.7z M62.9,16.7c-1.6-0.6-4.1-0.8-7.4-0.7
			c-1.5,0.4-2.7,0.1-3.5-0.7c0.7,0.9,1.9,1.7,3.7,2.2c0,0-0.6,0-1.8-0.1c1.4,0.7,2.6,0.8,3.7,0.2C59.5,16.9,61.3,16.6,62.9,16.7z"/>
		<path id="XMLID_807_" class="st3" d="M52.1,23.8c0.1-0.1,0.2-0.2,0.2-0.2c0.1-0.1,0.1-0.1,0.1-0.1c-0.4-0.7-0.4-1.4,0.1-1.9
			c0,0,0.3-0.3,0.8-1c1.1-0.1,2.2-0.7,3.1-1.8c1.6-1.5,3.7-2.2,6.5-2.1c-3-0.3-5.2,0.3-6.7,1.8c-0.9,1-1.8,1.4-2.6,1.4
			c0.9-1.1,0.8-1.8-0.2-2c0,0-0.5-0.1-1.5-0.2c-0.5-0.1-0.8-0.3-1-0.5c-0.7-0.8-1.4-1.1-2.2-0.9c-0.1,0.1-0.3,0.3-0.4,0.4
			c0.6-0.6,1.5-0.3,2.5,0.7c0.2,0.3,1,0.5,2.5,0.6c0.7,0.1,0.9,0.5,0.4,1.2c0,0-0.5,0.7-1.7,2C51.6,22.1,51.5,22.9,52.1,23.8"/>
		<path id="XMLID_806_" class="st3" d="M57.2,15c-1.1,0.1-2,0.4-1.9-0.3c1.4-2.6,2.5-3.5,3.9-3.7c-1,0.4-1.4,0.7-2.4,2.2
			c1.4-1.7,3.9-2.4,7.3-2.2c-1.6,0.4-2.9,1.3-4,2.6C59.5,14.5,58.5,14.9,57.2,15"/>
		<path id="XMLID_805_" class="st15" d="M61,11.8c-0.5,0.4-0.9,0.9-1.3,1.4C59,14,58,14.3,57,14.4l0,0c0,0-0.1,0-0.2,0l0.5-0.6
			C58.1,12.7,59.5,12.1,61,11.8"/>
		<path id="XMLID_803_" class="st3" d="M50.8,16.6c1.2,0,1.8,0.2,1.7,0.6C52.2,17.5,51.7,17.3,50.8,16.6"/>
		<path id="XMLID_802_" class="st14" d="M53.1,19.3c-0.8,0.8-1.3,1.5-1.7,2c0,0,0-0.9-0.1-2.8c0.7,0.2,1.2,0.2,1.6,0.2
			C53.3,18.7,53.4,18.9,53.1,19.3"/>
		<path id="XMLID_800_" class="st2" d="M67.8,69.9l-5.9-0.1h-1L52,69.6c-1.4,2.5-3.3,4.7-5.8,6.5c-1.5,2.1-3.3,3.7-5.3,4.9
			l-0.3,11.4c7.3-3.9,16.6-5.6,26.9-5.1c10.3,0,19.3,2.2,26.4,6.4c0.2-7.7,0.4-15.4,0.6-23.1l-19.7-0.5L67.8,69.9z"/>
		<path id="XMLID_792_" class="st16" d="M83.4,72.6c2.6,0.1,5.2,0.1,7.9,0.2c0,0.8,0,1.6-0.1,2.4c-1.7-0.1-3.3-0.3-5-0.4
			c0,0.7,0,1.3,0,2s0,1.3,0,2c1.3,0.2,2.6,0.4,3.9,0.7c-1.3,0.5-2.7,1-4,1.5c0,0.8,0,1.5-0.1,2.3c0,0.8,0,1.5-0.1,2.3
			c1.6,0.5,3.3,1.1,4.9,1.7c0,0.8,0,1.6-0.1,2.4c-2.6-1.1-5.2-2-7.8-2.8c0.1-2.4,0.1-4.7,0.2-7.1C83.3,77.3,83.4,75,83.4,72.6
			 M74.4,72.4c1,0,1.9,0,2.9,0.1c0,1.8-0.1,3.7-0.1,5.5s-0.1,3.7-0.1,5.5c1.6,0.3,3.1,0.6,4.7,0.9c0,0.7,0,1.3,0,2
			c-2.5-0.6-5.1-1.1-7.6-1.4c0.1-2.1,0.1-4.2,0.2-6.3C74.3,76.5,74.4,74.4,74.4,72.4z M68,84.6c-1.4,0-2.5-0.3-3.2-0.8
			s-1.1-1.3-1-2.3c0-1.1,0.1-2.2,0.1-3.2c0-1.1,0.1-2.2,0.1-3.2s0.4-1.8,1.2-2.3c0.7-0.5,1.8-0.8,3.2-0.7c1.4,0,2.5,0.3,3.2,0.9
			s1.1,1.3,1,2.3c-0.9,0.3-1.8,0.6-2.7,0.9c0-0.4,0-0.8,0-1.2c0-0.8-0.5-1.2-1.5-1.2s-1.5,0.4-1.5,1.2c0,1.1-0.1,2.2-0.1,3.3
			c0,1.1-0.1,2.2-0.1,3.3c0,0.8,0.5,1.2,1.5,1.2s1.5-0.3,1.5-1.1c0-0.8,0-1.6,0.1-2.4c-0.5,0-1,0-1.4-0.1c1.4-0.5,2.8-1.1,4.2-1.6
			c0,0.7,0,1.4,0,2c0,0.7,0,1.4,0,2c0,1-0.4,1.7-1.2,2.2C70.4,84.5,69.4,84.6,68,84.6z M58.9,80.5c-0.2-1-0.4-2.1-0.6-3.1
			c-0.2-1.1-0.4-2.1-0.6-3.2c0,0,0,0-0.1,0c-0.3,1.4-0.6,2.7-0.9,4.1c-0.3,1.4-0.6,2.8-0.9,4.2C56.9,81.9,57.9,81.2,58.9,80.5z
			 M56,71.9c1.3,0,2.6,0.1,3.9,0.1c0.4,2.1,0.9,4.2,1.3,6.3c0.4,2.1,0.9,4.1,1.3,6.2c-1,0.1-1.9,0.1-2.9,0.2
			c-0.2-0.8-0.3-1.6-0.5-2.5l0,0c-1.1,0.1-2.2,0.2-3.3,0.3c-0.2,0.9-0.4,1.8-0.6,2.7c-0.9,0.2-1.8,0.3-2.7,0.5
			c0.6-2.4,1.1-4.7,1.7-7.1C54.9,76.4,55.4,74.1,56,71.9z M47,75.4V76c0,0.7,0,1.4,0,2.1c1.3-0.2,2.6-0.3,4-0.4
			c-1.3,0.8-2.7,1.7-4,2.7c0,0.8,0,1.6-0.1,2.4c0,0.8,0,1.6-0.1,2.4c1.7-0.5,3.3-0.8,5-1.2c0,0.7,0,1.3,0,2
			c-2.6,0.7-5.3,1.5-7.9,2.5c0.1-2.8,0.1-5.6,0.2-8.4v-1.6c0.8-0.7,1.5-1.6,2.1-2.5C46.5,75.9,46.8,75.6,47,75.4z M50.6,71.8h1.5
			c0,0.7,0,1.3,0,2c-1.1,0-2.2,0-3.3,0.1C49.4,73.2,50,72.5,50.6,71.8z"/>
		<path id="XMLID_770_" class="st4" d="M88.4,79.7c0.1,0,0.2-0.1,0.4-0.1c-0.4-0.1-0.8-0.1-1.2-0.2C87.8,79.5,88.1,79.6,88.4,79.7
			 M83.6,80.5l-0.1,6c2.4,0.7,4.7,1.6,7.1,2.6c0-0.5,0-1.1,0-1.6c-1.5-0.6-3.1-1.1-4.7-1.6l-0.3-0.1v-0.3c0-0.8,0-1.5,0.1-2.3v-2.1
			C85,80.9,84.3,80.7,83.6,80.5z M83.6,78.9v0.6c0.9,0.3,1.8,0.6,2.7,0.9c0.3-0.1,0.6-0.2,0.9-0.3C86.1,79.7,84.9,79.3,83.6,78.9z
			 M83.7,77.4V78c0.7,0.2,1.4,0.4,2.1,0.7v-0.6C85.1,77.9,84.4,77.7,83.7,77.4z M74.6,78.7l-0.1,5.9c2.3,0.3,4.6,0.8,6.8,1.3
			c0-0.4,0-0.8,0-1.2c-1.5-0.3-2.9-0.6-4.4-0.8l-0.3-0.1v-0.3l0.1-4.5C76.1,78.9,75.4,78.8,74.6,78.7z M74.7,77.2v0.6
			c0.7,0.1,1.4,0.2,2.1,0.3V78v-0.5C76.1,77.3,75.4,77.3,74.7,77.2z M74.7,75.7v0.6c0.7,0.1,1.4,0.2,2.1,0.3V76
			C76.1,75.9,75.4,75.8,74.7,75.7z M70.1,75.3v0.4c0.2,0,0.4-0.1,0.6-0.1c0.3,0,0.7-0.1,1-0.2C71.2,75.4,70.7,75.3,70.1,75.3z
			 M66.4,75.8v-0.6c-0.7,0-1.4,0-2.1,0v0.6C65,75.8,65.7,75.8,66.4,75.8z M66.4,77.3v-0.6c-0.7,0-1.4,0-2.1,0v0.6
			C64.9,77.3,65.6,77.3,66.4,77.3z M71.6,78.4c-0.5,0.2-1,0.4-1.6,0.6v0.4c0,0.8,0,1.6-0.1,2.4c0,1.1-0.9,1.5-1.9,1.5
			s-1.9-0.5-1.8-1.6c0-1.1,0.1-2.2,0.1-3.3v-0.1c-0.7,0-1.4,0-2.1,0v0.1c0,1.1-0.1,2.2-0.1,3.2c0,0.8,0.2,1.5,0.9,2
			c0.8,0.6,2,0.7,3,0.7s2.2,0,3-0.6c0.7-0.4,1-1.1,1-1.9c0-0.7,0-1.4,0-2v-1.3C71.9,78.4,71.8,78.4,71.6,78.4z M55.6,74.9
			c-0.1,0.2-0.1,0.5-0.2,0.7C55.5,75.4,55.6,75.1,55.6,74.9z M58.9,78.5c0.1,0.7,0.2,1.3,0.4,2v0.2l-0.2,0.1
			c-0.6,0.4-1.2,0.8-1.8,1.2c0.5,0,1-0.1,1.5-0.1l0,0l0.7-0.1l0.1,0.3c0.1,0.7,0.3,1.4,0.4,2.1c0.7-0.1,1.4-0.1,2.1-0.2
			c-0.4-1.9-0.8-3.8-1.3-5.8v-0.1C60.2,78.4,59.5,78.4,58.9,78.5z M58.6,77l0.1,0.3v0.3c0.6-0.1,1.3-0.1,1.9-0.2l-0.1-0.6
			C59.9,76.9,59.3,76.9,58.6,77z M58.4,75.5l0.1,0.6c0.6-0.1,1.2-0.1,1.8-0.2c0-0.2-0.1-0.4-0.1-0.6C59.6,75.4,59,75.5,58.4,75.5z
			 M56.9,76.3c0-0.2,0.1-0.4,0.1-0.6c-0.6,0.1-1.1,0.2-1.7,0.2c-0.1,0.2-0.1,0.5-0.2,0.7l0,0C55.8,76.5,56.3,76.4,56.9,76.3z
			 M56.5,77.8c0-0.2,0.1-0.4,0.1-0.6c-0.6,0.1-1.1,0.2-1.7,0.3c-0.1,0.2-0.1,0.4-0.2,0.6C55.4,78,56,77.9,56.5,77.8z M55.6,82.5
			c0.3-1.2,0.5-2.5,0.8-3.7c-0.6,0.1-1.2,0.2-1.7,0.3c-0.5,2.1-1,4.1-1.5,6.2c0.6-0.1,1.3-0.2,1.9-0.3
			C55.2,84.1,55.4,83.3,55.6,82.5z M44.4,82l-0.1,5.9c2.3-0.9,4.7-1.7,7.2-2.3c0-0.4,0-0.8,0-1.3c-1.5,0.3-3,0.7-4.5,1.1l-0.5,0.1
			V85c0-0.8,0-1.6,0.1-2.4v-1.5C45.8,81.4,45.1,81.7,44.4,82z M44.4,80.5v0.7c0.7-0.3,1.4-0.6,2.2-0.8v-0.2l0.2-0.1
			c0.4-0.3,0.8-0.5,1.2-0.8C46.7,79.6,45.5,80,44.4,80.5z M47.9,78.3c-0.3,0-0.6,0.1-0.8,0.1l-0.4,0.1v-0.4
			c-0.7,0.3-1.5,0.5-2.2,0.8v0.7C45.5,79.2,46.7,78.7,47.9,78.3z"/>
	</g>
</g>
</svg>
