<?xml version="1.0" encoding="utf-8"?>
<!-- Generator: Adobe Illustrator 26.0.0, SVG Export Plug-In . SVG Version: 6.00 Build 0)  -->
<svg version="1.1" id="Layer_1" xmlns="http://www.w3.org/2000/svg" xmlns:xlink="http://www.w3.org/1999/xlink" x="0px" y="0px"
	 viewBox="0 0 68 68" style="enable-background:new 0 0 68 68;" xml:space="preserve">
<style type="text/css">
	.st0{display:none;}
	.st1{fill:#FFFFFF;}
	.st2{fill:#505368;}
</style>
<g>
	<circle class="st1" cx="34" cy="34" r="31"/>
	<path class="st2" d="M27.1,53.4c0.4,0.4,0.3,1,0,1.4l-2.1,2c-0.4,0.4-1,0.3-1.4,0L11.3,43.5c-0.4-0.4-0.3-1,0-1.4l2.1-2
		c0.4-0.4,1-0.3,1.4,0C14.8,40.1,27.1,53.4,27.1,53.4z M42.9,28.4c0.4,0.4,0.3,1,0,1.4L29.6,42.3c-0.4,0.4-1,0.3-1.4,0L25,38.9
		c-0.4-0.4-0.3-1,0-1.4L38.3,25c0.4-0.4,1-0.3,1.4,0C39.7,24.9,42.9,28.4,42.9,28.4z M31.7,49.1c0.4,0.4,0.3,1,0,1.4l-2.1,2
		c-0.4,0.4-1,0.3-1.4,0L15.9,39.2c-0.4-0.4-0.3-1,0-1.4l2.1-2c0.4-0.4,1-0.3,1.4,0C19.3,35.8,31.7,49.1,31.7,49.1z M52.2,28.8
		c0.4,0.4,0.3,1-0.1,1.4l-2.1,2c-0.4,0.4-1,0.3-1.4,0L36.3,18.9c-0.4-0.4-0.3-1,0-1.4l2.1-2c0.4-0.4,1-0.3,1.4,0
		C39.9,15.5,52.2,28.8,52.2,28.8z M56.7,24.6c0.4,0.4,0.3,1,0,1.4l-2.1,2c-0.4,0.4-1,0.3-1.4,0L40.9,14.7c-0.4-0.4-0.3-1,0-1.4
		l2.1-2c0.4-0.4,1-0.3,1.4,0C44.4,11.3,56.7,24.6,56.7,24.6z"/>
</g>
</svg>
